solid OpenSCAD_Model
  facet normal -0.923876 -0.382693 0
    outer loop
      vertex 1.28497 -7.15569 0
      vertex 1.15207 -6.83485 3
      vertex 1.15207 -6.83485 0
    endloop
  endfacet
  facet normal -0.923876 -0.382693 0
    outer loop
      vertex 1.15207 -6.83485 3
      vertex 1.28497 -7.15569 0
      vertex 1.28497 -7.15569 3
    endloop
  endfacet
  facet normal -0.991445 -0.130528 0
    outer loop
      vertex 1.3303 -7.5 0
      vertex 1.28497 -7.15569 3
      vertex 1.28497 -7.15569 0
    endloop
  endfacet
  facet normal -0.991445 -0.130528 0
    outer loop
      vertex 1.28497 -7.15569 3
      vertex 1.3303 -7.5 0
      vertex 1.3303 -7.5 3
    endloop
  endfacet
  facet normal 0.608764 -0.793351 0
    outer loop
      vertex -0.940663 -6.55934 0
      vertex -0.66515 -6.34793 3
      vertex -0.940663 -6.55934 3
    endloop
  endfacet
  facet normal 0.608764 -0.793351 0
    outer loop
      vertex -0.66515 -6.34793 3
      vertex -0.940663 -6.55934 0
      vertex -0.66515 -6.34793 0
    endloop
  endfacet
  facet normal 0.38269 -0.923877 0
    outer loop
      vertex -0.66515 -6.34793 0
      vertex -0.344307 -6.21503 3
      vertex -0.66515 -6.34793 3
    endloop
  endfacet
  facet normal 0.38269 -0.923877 0
    outer loop
      vertex -0.344307 -6.21503 3
      vertex -0.66515 -6.34793 0
      vertex -0.344307 -6.21503 0
    endloop
  endfacet
  facet normal -0.608764 0.793351 0
    outer loop
      vertex 0.940663 -8.44066 0
      vertex 0.66515 -8.65207 3
      vertex 0.940663 -8.44066 3
    endloop
  endfacet
  facet normal -0.608764 0.793351 0
    outer loop
      vertex 0.66515 -8.65207 3
      vertex 0.940663 -8.44066 0
      vertex 0.66515 -8.65207 0
    endloop
  endfacet
  facet normal -0.608764 -0.793351 0
    outer loop
      vertex 0.66515 -6.34793 0
      vertex 0.940663 -6.55934 3
      vertex 0.66515 -6.34793 3
    endloop
  endfacet
  facet normal -0.608764 -0.793351 -0
    outer loop
      vertex 0.940663 -6.55934 3
      vertex 0.66515 -6.34793 0
      vertex 0.940663 -6.55934 0
    endloop
  endfacet
  facet normal 0.130529 0.991444 -0
    outer loop
      vertex 0 -8.8303 0
      vertex -0.344307 -8.78497 3
      vertex 0 -8.8303 3
    endloop
  endfacet
  facet normal 0.130529 0.991444 0
    outer loop
      vertex -0.344307 -8.78497 3
      vertex 0 -8.8303 0
      vertex -0.344307 -8.78497 0
    endloop
  endfacet
  facet normal -0.130529 -0.991444 0
    outer loop
      vertex 0 -6.1697 0
      vertex 0.344307 -6.21503 3
      vertex 0 -6.1697 3
    endloop
  endfacet
  facet normal -0.130529 -0.991444 -0
    outer loop
      vertex 0.344307 -6.21503 3
      vertex 0 -6.1697 0
      vertex 0.344307 -6.21503 0
    endloop
  endfacet
  facet normal -0.38269 -0.923877 0
    outer loop
      vertex 0.344307 -6.21503 0
      vertex 0.66515 -6.34793 3
      vertex 0.344307 -6.21503 3
    endloop
  endfacet
  facet normal -0.38269 -0.923877 -0
    outer loop
      vertex 0.66515 -6.34793 3
      vertex 0.344307 -6.21503 0
      vertex 0.66515 -6.34793 0
    endloop
  endfacet
  facet normal 0.608764 0.793351 -0
    outer loop
      vertex -0.66515 -8.65207 0
      vertex -0.940663 -8.44066 3
      vertex -0.66515 -8.65207 3
    endloop
  endfacet
  facet normal 0.608764 0.793351 0
    outer loop
      vertex -0.940663 -8.44066 3
      vertex -0.66515 -8.65207 0
      vertex -0.940663 -8.44066 0
    endloop
  endfacet
  facet normal -0.793352 -0.608763 0
    outer loop
      vertex 1.15207 -6.83485 0
      vertex 0.940663 -6.55934 3
      vertex 0.940663 -6.55934 0
    endloop
  endfacet
  facet normal -0.793352 -0.608763 0
    outer loop
      vertex 0.940663 -6.55934 3
      vertex 1.15207 -6.83485 0
      vertex 1.15207 -6.83485 3
    endloop
  endfacet
  facet normal -0.793352 0.608763 0
    outer loop
      vertex 0.940663 -8.44066 0
      vertex 1.15207 -8.16515 3
      vertex 1.15207 -8.16515 0
    endloop
  endfacet
  facet normal -0.793352 0.608763 0
    outer loop
      vertex 1.15207 -8.16515 3
      vertex 0.940663 -8.44066 0
      vertex 0.940663 -8.44066 3
    endloop
  endfacet
  facet normal -0.38269 0.923877 0
    outer loop
      vertex 0.66515 -8.65207 0
      vertex 0.344307 -8.78497 3
      vertex 0.66515 -8.65207 3
    endloop
  endfacet
  facet normal -0.38269 0.923877 0
    outer loop
      vertex 0.344307 -8.78497 3
      vertex 0.66515 -8.65207 0
      vertex 0.344307 -8.78497 0
    endloop
  endfacet
  facet normal 0.793352 -0.608763 0
    outer loop
      vertex -1.15207 -6.83485 3
      vertex -0.940663 -6.55934 0
      vertex -0.940663 -6.55934 3
    endloop
  endfacet
  facet normal 0.793352 -0.608763 0
    outer loop
      vertex -0.940663 -6.55934 0
      vertex -1.15207 -6.83485 3
      vertex -1.15207 -6.83485 0
    endloop
  endfacet
  facet normal 0.793352 0.608763 0
    outer loop
      vertex -0.940663 -8.44066 3
      vertex -1.15207 -8.16515 0
      vertex -1.15207 -8.16515 3
    endloop
  endfacet
  facet normal 0.793352 0.608763 0
    outer loop
      vertex -1.15207 -8.16515 0
      vertex -0.940663 -8.44066 3
      vertex -0.940663 -8.44066 0
    endloop
  endfacet
  facet normal -0.991445 0.130528 0
    outer loop
      vertex 1.28497 -7.84431 0
      vertex 1.3303 -7.5 3
      vertex 1.3303 -7.5 0
    endloop
  endfacet
  facet normal -0.991445 0.130528 0
    outer loop
      vertex 1.3303 -7.5 3
      vertex 1.28497 -7.84431 0
      vertex 1.28497 -7.84431 3
    endloop
  endfacet
  facet normal 0.130529 -0.991444 0
    outer loop
      vertex -0.344307 -6.21503 0
      vertex 0 -6.1697 3
      vertex -0.344307 -6.21503 3
    endloop
  endfacet
  facet normal 0.130529 -0.991444 0
    outer loop
      vertex 0 -6.1697 3
      vertex -0.344307 -6.21503 0
      vertex 0 -6.1697 0
    endloop
  endfacet
  facet normal 0.923876 0.382693 0
    outer loop
      vertex -1.15207 -8.16515 3
      vertex -1.28497 -7.84431 0
      vertex -1.28497 -7.84431 3
    endloop
  endfacet
  facet normal 0.923876 0.382693 0
    outer loop
      vertex -1.28497 -7.84431 0
      vertex -1.15207 -8.16515 3
      vertex -1.15207 -8.16515 0
    endloop
  endfacet
  facet normal 0.991445 0.130528 0
    outer loop
      vertex -1.28497 -7.84431 3
      vertex -1.3303 -7.5 0
      vertex -1.3303 -7.5 3
    endloop
  endfacet
  facet normal 0.991445 0.130528 0
    outer loop
      vertex -1.3303 -7.5 0
      vertex -1.28497 -7.84431 3
      vertex -1.28497 -7.84431 0
    endloop
  endfacet
  facet normal -0.923876 0.382693 0
    outer loop
      vertex 1.15207 -8.16515 0
      vertex 1.28497 -7.84431 3
      vertex 1.28497 -7.84431 0
    endloop
  endfacet
  facet normal -0.923876 0.382693 0
    outer loop
      vertex 1.28497 -7.84431 3
      vertex 1.15207 -8.16515 0
      vertex 1.15207 -8.16515 3
    endloop
  endfacet
  facet normal 0.38269 0.923877 -0
    outer loop
      vertex -0.344307 -8.78497 0
      vertex -0.66515 -8.65207 3
      vertex -0.344307 -8.78497 3
    endloop
  endfacet
  facet normal 0.38269 0.923877 0
    outer loop
      vertex -0.66515 -8.65207 3
      vertex -0.344307 -8.78497 0
      vertex -0.66515 -8.65207 0
    endloop
  endfacet
  facet normal -0.130529 0.991444 0
    outer loop
      vertex 0.344307 -8.78497 0
      vertex 0 -8.8303 3
      vertex 0.344307 -8.78497 3
    endloop
  endfacet
  facet normal -0.130529 0.991444 0
    outer loop
      vertex 0 -8.8303 3
      vertex 0.344307 -8.78497 0
      vertex 0 -8.8303 0
    endloop
  endfacet
  facet normal 0.923876 -0.382693 0
    outer loop
      vertex -1.28497 -7.15569 3
      vertex -1.15207 -6.83485 0
      vertex -1.15207 -6.83485 3
    endloop
  endfacet
  facet normal 0.923876 -0.382693 0
    outer loop
      vertex -1.15207 -6.83485 0
      vertex -1.28497 -7.15569 3
      vertex -1.28497 -7.15569 0
    endloop
  endfacet
  facet normal 0.991445 -0.130528 0
    outer loop
      vertex -1.3303 -7.5 3
      vertex -1.28497 -7.15569 0
      vertex -1.28497 -7.15569 3
    endloop
  endfacet
  facet normal 0.991445 -0.130528 0
    outer loop
      vertex -1.28497 -7.15569 0
      vertex -1.3303 -7.5 3
      vertex -1.3303 -7.5 0
    endloop
  endfacet
  facet normal -1 0 0
    outer loop
      vertex 2.81 -4.365 0
      vertex 2.81 0.365 3
      vertex 2.81 0.365 0
    endloop
  endfacet
  facet normal -1 -0 0
    outer loop
      vertex 2.81 0.365 3
      vertex 2.81 -4.365 0
      vertex 2.81 -4.365 3
    endloop
  endfacet
  facet normal 1 -0 0
    outer loop
      vertex -2.81 -4.365 3
      vertex -2.81 0.365 0
      vertex -2.81 0.365 3
    endloop
  endfacet
  facet normal 1 0 0
    outer loop
      vertex -2.81 0.365 0
      vertex -2.81 -4.365 3
      vertex -2.81 -4.365 0
    endloop
  endfacet
  facet normal 0 -1 0
    outer loop
      vertex -2.81 0.365 0
      vertex 2.81 0.365 3
      vertex -2.81 0.365 3
    endloop
  endfacet
  facet normal 0 -1 -0
    outer loop
      vertex 2.81 0.365 3
      vertex -2.81 0.365 0
      vertex 2.81 0.365 0
    endloop
  endfacet
  facet normal 0 1 -0
    outer loop
      vertex 2.81 -4.365 0
      vertex -2.81 -4.365 3
      vertex 2.81 -4.365 3
    endloop
  endfacet
  facet normal 0 1 0
    outer loop
      vertex -2.81 -4.365 3
      vertex 2.81 -4.365 0
      vertex -2.81 -4.365 0
    endloop
  endfacet
  facet normal -1 0 0
    outer loop
      vertex 2.81 3.535 0
      vertex 2.81 8.265 3
      vertex 2.81 8.265 0
    endloop
  endfacet
  facet normal -1 -0 0
    outer loop
      vertex 2.81 8.265 3
      vertex 2.81 3.535 0
      vertex 2.81 3.535 3
    endloop
  endfacet
  facet normal 1 -0 0
    outer loop
      vertex -2.81 3.535 3
      vertex -2.81 8.265 0
      vertex -2.81 8.265 3
    endloop
  endfacet
  facet normal 1 0 0
    outer loop
      vertex -2.81 8.265 0
      vertex -2.81 3.535 3
      vertex -2.81 3.535 0
    endloop
  endfacet
  facet normal 0 -1 0
    outer loop
      vertex -2.81 8.265 0
      vertex 2.81 8.265 3
      vertex -2.81 8.265 3
    endloop
  endfacet
  facet normal 0 -1 -0
    outer loop
      vertex 2.81 8.265 3
      vertex -2.81 8.265 0
      vertex 2.81 8.265 0
    endloop
  endfacet
  facet normal 0 1 -0
    outer loop
      vertex 2.81 3.535 0
      vertex -2.81 3.535 3
      vertex 2.81 3.535 3
    endloop
  endfacet
  facet normal 0 1 0
    outer loop
      vertex -2.81 3.535 3
      vertex 2.81 3.535 0
      vertex -2.81 3.535 0
    endloop
  endfacet
  facet normal 1 -0 0
    outer loop
      vertex 11.5 -11.5 3
      vertex 11.5 9.5 0
      vertex 11.5 9.5 3
    endloop
  endfacet
  facet normal 1 0 0
    outer loop
      vertex 11.5 9.5 0
      vertex 11.5 -11.5 3
      vertex 11.5 -11.5 0
    endloop
  endfacet
  facet normal -0 0 1
    outer loop
      vertex -6.22707 3.72707 3
      vertex -2.81 3.535 3
      vertex -5.94098 4.0999 3
    endloop
  endfacet
  facet normal 0 0 1
    outer loop
      vertex -2.81 0.365 3
      vertex -5.76114 -4.53407 3
      vertex -5.6998 -5 3
    endloop
  endfacet
  facet normal 0 0 1
    outer loop
      vertex -2.81 3.535 3
      vertex -6.22707 3.72707 3
      vertex -2.81 0.365 3
    endloop
  endfacet
  facet normal 0 0 1
    outer loop
      vertex -2.81 0.365 3
      vertex -5.94098 -4.0999 3
      vertex -5.76114 -4.53407 3
    endloop
  endfacet
  facet normal -0 0 1
    outer loop
      vertex -6.5999 3.44098 3
      vertex -2.81 0.365 3
      vertex -6.22707 3.72707 3
    endloop
  endfacet
  facet normal 0 0 1
    outer loop
      vertex -2.81 0.365 3
      vertex -6.22707 -3.72707 3
      vertex -5.94098 -4.0999 3
    endloop
  endfacet
  facet normal -0 0 1
    outer loop
      vertex -7.03407 3.26114 3
      vertex -2.81 0.365 3
      vertex -6.5999 3.44098 3
    endloop
  endfacet
  facet normal 0 0 1
    outer loop
      vertex -2.81 0.365 3
      vertex -6.5999 -3.44098 3
      vertex -6.22707 -3.72707 3
    endloop
  endfacet
  facet normal 0 0 1
    outer loop
      vertex -7.03407 -3.26114 3
      vertex -2.81 0.365 3
      vertex -7.03407 3.26114 3
    endloop
  endfacet
  facet normal 0 0 1
    outer loop
      vertex -2.81 0.365 3
      vertex -7.03407 -3.26114 3
      vertex -6.5999 -3.44098 3
    endloop
  endfacet
  facet normal -0 0 1
    outer loop
      vertex -7.5 3.1998 3
      vertex -7.03407 -3.26114 3
      vertex -7.03407 3.26114 3
    endloop
  endfacet
  facet normal 0 0 1
    outer loop
      vertex -7.5 3.1998 3
      vertex -7.5 -3.1998 3
      vertex -7.03407 -3.26114 3
    endloop
  endfacet
  facet normal 0 0 1
    outer loop
      vertex -7.96593 3.26114 3
      vertex -7.5 -3.1998 3
      vertex -7.5 3.1998 3
    endloop
  endfacet
  facet normal 0 0 1
    outer loop
      vertex -7.96593 3.26114 3
      vertex -7.96593 -3.26114 3
      vertex -7.5 -3.1998 3
    endloop
  endfacet
  facet normal 0 0 1
    outer loop
      vertex -8.4001 3.44098 3
      vertex -7.96593 -3.26114 3
      vertex -7.96593 3.26114 3
    endloop
  endfacet
  facet normal 0 0 1
    outer loop
      vertex -8.4001 3.44098 3
      vertex -8.4001 -3.44098 3
      vertex -7.96593 -3.26114 3
    endloop
  endfacet
  facet normal 0 0 1
    outer loop
      vertex -8.77293 3.72707 3
      vertex -8.4001 -3.44098 3
      vertex -8.4001 3.44098 3
    endloop
  endfacet
  facet normal 0 0 1
    outer loop
      vertex -8.77293 3.72707 3
      vertex -8.77293 -3.72707 3
      vertex -8.4001 -3.44098 3
    endloop
  endfacet
  facet normal 0 0 1
    outer loop
      vertex -9.05902 4.0999 3
      vertex -8.77293 -3.72707 3
      vertex -8.77293 3.72707 3
    endloop
  endfacet
  facet normal 0 0 1
    outer loop
      vertex -9.05902 4.0999 3
      vertex -9.05902 -4.0999 3
      vertex -8.77293 -3.72707 3
    endloop
  endfacet
  facet normal 0 0 1
    outer loop
      vertex -9.23886 4.53407 3
      vertex -9.05902 -4.0999 3
      vertex -9.05902 4.0999 3
    endloop
  endfacet
  facet normal 0 0 1
    outer loop
      vertex -9.23886 4.53407 3
      vertex -9.23886 -4.53407 3
      vertex -9.05902 -4.0999 3
    endloop
  endfacet
  facet normal 0 0 1
    outer loop
      vertex -11.5 9.5 3
      vertex -9.23886 4.53407 3
      vertex -9.3002 5 3
    endloop
  endfacet
  facet normal 0 0 1
    outer loop
      vertex -9.23886 4.53407 3
      vertex -11.5 9.5 3
      vertex -9.23886 -4.53407 3
    endloop
  endfacet
  facet normal 0 0 1
    outer loop
      vertex 5.94098 -5.9001 3
      vertex 1.28497 -7.15569 3
      vertex 1.3303 -7.5 3
    endloop
  endfacet
  facet normal 0 0 1
    outer loop
      vertex 2.81 -4.365 3
      vertex 1.15207 -6.83485 3
      vertex 1.28497 -7.15569 3
    endloop
  endfacet
  facet normal 0 0 1
    outer loop
      vertex 2.81 -4.365 3
      vertex 0.940663 -6.55934 3
      vertex 1.15207 -6.83485 3
    endloop
  endfacet
  facet normal 0 0 1
    outer loop
      vertex 2.81 -4.365 3
      vertex 0.66515 -6.34793 3
      vertex 0.940663 -6.55934 3
    endloop
  endfacet
  facet normal 0 0 1
    outer loop
      vertex 2.81 -4.365 3
      vertex 0.344307 -6.21503 3
      vertex 0.66515 -6.34793 3
    endloop
  endfacet
  facet normal 0 0 1
    outer loop
      vertex 2.81 -4.365 3
      vertex 0 -6.1697 3
      vertex 0.344307 -6.21503 3
    endloop
  endfacet
  facet normal -0 0 1
    outer loop
      vertex -2.81 -4.365 3
      vertex 0 -6.1697 3
      vertex 2.81 -4.365 3
    endloop
  endfacet
  facet normal 0 0 1
    outer loop
      vertex 0 -6.1697 3
      vertex -2.81 -4.365 3
      vertex -0.344307 -6.21503 3
    endloop
  endfacet
  facet normal -0 0 1
    outer loop
      vertex -5.94098 -5.9001 3
      vertex -1.28497 -7.15569 3
      vertex -2.81 -4.365 3
    endloop
  endfacet
  facet normal 0 0 1
    outer loop
      vertex -1.15207 -6.83485 3
      vertex -2.81 -4.365 3
      vertex -1.28497 -7.15569 3
    endloop
  endfacet
  facet normal 0 0 1
    outer loop
      vertex -0.940663 -6.55934 3
      vertex -2.81 -4.365 3
      vertex -1.15207 -6.83485 3
    endloop
  endfacet
  facet normal 0 0 1
    outer loop
      vertex -0.66515 -6.34793 3
      vertex -2.81 -4.365 3
      vertex -0.940663 -6.55934 3
    endloop
  endfacet
  facet normal 0 0 1
    outer loop
      vertex -0.344307 -6.21503 3
      vertex -2.81 -4.365 3
      vertex -0.66515 -6.34793 3
    endloop
  endfacet
  facet normal -0 0 1
    outer loop
      vertex -2.81 3.535 3
      vertex 2.81 0.365 3
      vertex 2.81 3.535 3
    endloop
  endfacet
  facet normal 0 0 1
    outer loop
      vertex 2.81 0.365 3
      vertex -2.81 3.535 3
      vertex -2.81 0.365 3
    endloop
  endfacet
  facet normal 0 0 1
    outer loop
      vertex 9.23886 -4.53407 3
      vertex 11.5 9.5 3
      vertex 9.23886 4.53407 3
    endloop
  endfacet
  facet normal 0 0 1
    outer loop
      vertex 11.5 9.5 3
      vertex 9.23886 -4.53407 3
      vertex 9.3002 -5 3
    endloop
  endfacet
  facet normal -0 0 1
    outer loop
      vertex 9.05902 4.0999 3
      vertex 9.23886 -4.53407 3
      vertex 9.23886 4.53407 3
    endloop
  endfacet
  facet normal 0 0 1
    outer loop
      vertex 9.05902 4.0999 3
      vertex 9.05902 -4.0999 3
      vertex 9.23886 -4.53407 3
    endloop
  endfacet
  facet normal -0 0 1
    outer loop
      vertex 8.77293 3.72707 3
      vertex 9.05902 -4.0999 3
      vertex 9.05902 4.0999 3
    endloop
  endfacet
  facet normal 0 0 1
    outer loop
      vertex 8.77293 3.72707 3
      vertex 8.77293 -3.72707 3
      vertex 9.05902 -4.0999 3
    endloop
  endfacet
  facet normal -0 0 1
    outer loop
      vertex 8.4001 3.44098 3
      vertex 8.77293 -3.72707 3
      vertex 8.77293 3.72707 3
    endloop
  endfacet
  facet normal 0 0 1
    outer loop
      vertex 8.4001 3.44098 3
      vertex 8.4001 -3.44098 3
      vertex 8.77293 -3.72707 3
    endloop
  endfacet
  facet normal -0 0 1
    outer loop
      vertex 7.96593 3.26114 3
      vertex 8.4001 -3.44098 3
      vertex 8.4001 3.44098 3
    endloop
  endfacet
  facet normal 0 0 1
    outer loop
      vertex 7.96593 3.26114 3
      vertex 7.96593 -3.26114 3
      vertex 8.4001 -3.44098 3
    endloop
  endfacet
  facet normal -0 0 1
    outer loop
      vertex 7.5 3.1998 3
      vertex 7.96593 -3.26114 3
      vertex 7.96593 3.26114 3
    endloop
  endfacet
  facet normal 0 0 1
    outer loop
      vertex 7.5 3.1998 3
      vertex 7.5 -3.1998 3
      vertex 7.96593 -3.26114 3
    endloop
  endfacet
  facet normal 0 0 1
    outer loop
      vertex 7.03407 3.26114 3
      vertex 7.5 -3.1998 3
      vertex 7.5 3.1998 3
    endloop
  endfacet
  facet normal 0 0 1
    outer loop
      vertex 7.03407 3.26114 3
      vertex 7.03407 -3.26114 3
      vertex 7.5 -3.1998 3
    endloop
  endfacet
  facet normal 0 0 1
    outer loop
      vertex 2.81 0.365 3
      vertex 7.03407 3.26114 3
      vertex 6.5999 3.44098 3
    endloop
  endfacet
  facet normal 0 0 1
    outer loop
      vertex 7.03407 3.26114 3
      vertex 2.81 0.365 3
      vertex 7.03407 -3.26114 3
    endloop
  endfacet
  facet normal 0 0 1
    outer loop
      vertex 2.81 0.365 3
      vertex 6.5999 3.44098 3
      vertex 6.22707 3.72707 3
    endloop
  endfacet
  facet normal 0 0 1
    outer loop
      vertex 7.03407 -3.26114 3
      vertex 2.81 0.365 3
      vertex 6.5999 -3.44098 3
    endloop
  endfacet
  facet normal 0 0 1
    outer loop
      vertex 2.81 3.535 3
      vertex 6.22707 3.72707 3
      vertex 5.94098 4.0999 3
    endloop
  endfacet
  facet normal 0 0 1
    outer loop
      vertex 6.5999 -3.44098 3
      vertex 2.81 0.365 3
      vertex 6.22707 -3.72707 3
    endloop
  endfacet
  facet normal 0 0 1
    outer loop
      vertex 2.81 3.535 3
      vertex 5.94098 4.0999 3
      vertex 5.76114 4.53407 3
    endloop
  endfacet
  facet normal 0 0 1
    outer loop
      vertex 2.81 -4.365 3
      vertex 6.22707 -3.72707 3
      vertex 2.81 0.365 3
    endloop
  endfacet
  facet normal 0 0 1
    outer loop
      vertex 2.81 3.535 3
      vertex 5.76114 4.53407 3
      vertex 5.6998 5 3
    endloop
  endfacet
  facet normal 0 0 1
    outer loop
      vertex 6.22707 -3.72707 3
      vertex 2.81 -4.365 3
      vertex 5.94098 -4.0999 3
    endloop
  endfacet
  facet normal 0 0 1
    outer loop
      vertex 9.23886 4.53407 3
      vertex 11.5 9.5 3
      vertex 9.3002 5 3
    endloop
  endfacet
  facet normal 0 0 1
    outer loop
      vertex 11.5 9.5 3
      vertex 9.23886 5.46593 3
      vertex 9.3002 5 3
    endloop
  endfacet
  facet normal 0 0 1
    outer loop
      vertex 11.5 9.5 3
      vertex 9.05902 5.9001 3
      vertex 9.23886 5.46593 3
    endloop
  endfacet
  facet normal 0 0 1
    outer loop
      vertex 11.5 9.5 3
      vertex 8.77293 6.27293 3
      vertex 9.05902 5.9001 3
    endloop
  endfacet
  facet normal 0 0 1
    outer loop
      vertex 11.5 9.5 3
      vertex 8.4001 6.55902 3
      vertex 8.77293 6.27293 3
    endloop
  endfacet
  facet normal 0 0 1
    outer loop
      vertex 11.5 9.5 3
      vertex 7.96593 6.73886 3
      vertex 8.4001 6.55902 3
    endloop
  endfacet
  facet normal 0 0 1
    outer loop
      vertex 11.5 9.5 3
      vertex 7.5 6.8002 3
      vertex 7.96593 6.73886 3
    endloop
  endfacet
  facet normal -0 0 1
    outer loop
      vertex 2.81 8.265 3
      vertex 7.5 6.8002 3
      vertex 11.5 9.5 3
    endloop
  endfacet
  facet normal 0 0 1
    outer loop
      vertex 7.5 6.8002 3
      vertex 2.81 8.265 3
      vertex 7.03407 6.73886 3
    endloop
  endfacet
  facet normal 0 0 1
    outer loop
      vertex 5.76114 5.46593 3
      vertex 2.81 3.535 3
      vertex 5.6998 5 3
    endloop
  endfacet
  facet normal 0 0 1
    outer loop
      vertex 2.81 3.535 3
      vertex 5.76114 5.46593 3
      vertex 2.81 8.265 3
    endloop
  endfacet
  facet normal 0 0 1
    outer loop
      vertex 5.94098 5.9001 3
      vertex 2.81 8.265 3
      vertex 5.76114 5.46593 3
    endloop
  endfacet
  facet normal 0 0 1
    outer loop
      vertex 6.22707 6.27293 3
      vertex 2.81 8.265 3
      vertex 5.94098 5.9001 3
    endloop
  endfacet
  facet normal 0 0 1
    outer loop
      vertex 6.5999 6.55902 3
      vertex 2.81 8.265 3
      vertex 6.22707 6.27293 3
    endloop
  endfacet
  facet normal 0 0 1
    outer loop
      vertex 7.03407 6.73886 3
      vertex 2.81 8.265 3
      vertex 6.5999 6.55902 3
    endloop
  endfacet
  facet normal 0 0 1
    outer loop
      vertex 11.5 9.5 3
      vertex -2.81 8.265 3
      vertex 2.81 8.265 3
    endloop
  endfacet
  facet normal -0 0 1
    outer loop
      vertex -5.76114 5.46593 3
      vertex -2.81 3.535 3
      vertex -2.81 8.265 3
    endloop
  endfacet
  facet normal -0 0 1
    outer loop
      vertex -5.76114 4.53407 3
      vertex -2.81 3.535 3
      vertex -5.6998 5 3
    endloop
  endfacet
  facet normal -0 0 1
    outer loop
      vertex -5.94098 4.0999 3
      vertex -2.81 3.535 3
      vertex -5.76114 4.53407 3
    endloop
  endfacet
  facet normal 0 0 1
    outer loop
      vertex -2.81 3.535 3
      vertex -5.76114 5.46593 3
      vertex -5.6998 5 3
    endloop
  endfacet
  facet normal 0 0 1
    outer loop
      vertex -2.81 8.265 3
      vertex -5.94098 5.9001 3
      vertex -5.76114 5.46593 3
    endloop
  endfacet
  facet normal 0 0 1
    outer loop
      vertex -2.81 8.265 3
      vertex -6.22707 6.27293 3
      vertex -5.94098 5.9001 3
    endloop
  endfacet
  facet normal 0 0 1
    outer loop
      vertex -2.81 8.265 3
      vertex -6.5999 6.55902 3
      vertex -6.22707 6.27293 3
    endloop
  endfacet
  facet normal 0 0 1
    outer loop
      vertex -2.81 8.265 3
      vertex -7.03407 6.73886 3
      vertex -6.5999 6.55902 3
    endloop
  endfacet
  facet normal 0 0 1
    outer loop
      vertex -2.81 8.265 3
      vertex -7.5 6.8002 3
      vertex -7.03407 6.73886 3
    endloop
  endfacet
  facet normal 0 0 1
    outer loop
      vertex -11.5 9.5 3
      vertex -7.5 6.8002 3
      vertex -2.81 8.265 3
    endloop
  endfacet
  facet normal 0 0 1
    outer loop
      vertex -11.5 -11.5 3
      vertex -9.23886 -4.53407 3
      vertex -11.5 9.5 3
    endloop
  endfacet
  facet normal 0 0 1
    outer loop
      vertex -9.23886 5.46593 3
      vertex -11.5 9.5 3
      vertex -9.3002 5 3
    endloop
  endfacet
  facet normal 0 0 1
    outer loop
      vertex -9.05902 5.9001 3
      vertex -11.5 9.5 3
      vertex -9.23886 5.46593 3
    endloop
  endfacet
  facet normal 0 0 1
    outer loop
      vertex -8.77293 6.27293 3
      vertex -11.5 9.5 3
      vertex -9.05902 5.9001 3
    endloop
  endfacet
  facet normal 0 0 1
    outer loop
      vertex -8.4001 6.55902 3
      vertex -11.5 9.5 3
      vertex -8.77293 6.27293 3
    endloop
  endfacet
  facet normal 0 0 1
    outer loop
      vertex -7.96593 6.73886 3
      vertex -11.5 9.5 3
      vertex -8.4001 6.55902 3
    endloop
  endfacet
  facet normal 0 0 1
    outer loop
      vertex -7.5 6.8002 3
      vertex -11.5 9.5 3
      vertex -7.96593 6.73886 3
    endloop
  endfacet
  facet normal -0 0 1
    outer loop
      vertex -11.5 9.5 3
      vertex -2.81 8.265 3
      vertex 11.5 9.5 3
    endloop
  endfacet
  facet normal 0 0 1
    outer loop
      vertex 11.5 9.5 3
      vertex 9.3002 -5 3
      vertex 11.5 -11.5 3
    endloop
  endfacet
  facet normal -0 0 1
    outer loop
      vertex 9.23886 -5.46593 3
      vertex 11.5 -11.5 3
      vertex 9.3002 -5 3
    endloop
  endfacet
  facet normal -0 0 1
    outer loop
      vertex 9.05902 -5.9001 3
      vertex 11.5 -11.5 3
      vertex 9.23886 -5.46593 3
    endloop
  endfacet
  facet normal -0 0 1
    outer loop
      vertex 8.77293 -6.27293 3
      vertex 11.5 -11.5 3
      vertex 9.05902 -5.9001 3
    endloop
  endfacet
  facet normal -0 0 1
    outer loop
      vertex 8.4001 -6.55902 3
      vertex 11.5 -11.5 3
      vertex 8.77293 -6.27293 3
    endloop
  endfacet
  facet normal -0 0 1
    outer loop
      vertex 7.96593 -6.73886 3
      vertex 11.5 -11.5 3
      vertex 8.4001 -6.55902 3
    endloop
  endfacet
  facet normal -0 0 1
    outer loop
      vertex 7.5 -6.8002 3
      vertex 11.5 -11.5 3
      vertex 7.96593 -6.73886 3
    endloop
  endfacet
  facet normal 0 0 1
    outer loop
      vertex 7.03407 -6.73886 3
      vertex 11.5 -11.5 3
      vertex 7.5 -6.8002 3
    endloop
  endfacet
  facet normal 0 0 1
    outer loop
      vertex 1.15207 -8.16515 3
      vertex 7.03407 -6.73886 3
      vertex 6.5999 -6.55902 3
    endloop
  endfacet
  facet normal 0 0 1
    outer loop
      vertex 1.28497 -7.84431 3
      vertex 6.5999 -6.55902 3
      vertex 6.22707 -6.27293 3
    endloop
  endfacet
  facet normal 0 0 1
    outer loop
      vertex 6.22707 3.72707 3
      vertex 2.81 3.535 3
      vertex 2.81 0.365 3
    endloop
  endfacet
  facet normal 0 0 1
    outer loop
      vertex 5.94098 -4.0999 3
      vertex 2.81 -4.365 3
      vertex 5.76114 -4.53407 3
    endloop
  endfacet
  facet normal 0 0 1
    outer loop
      vertex 5.76114 -4.53407 3
      vertex 2.81 -4.365 3
      vertex 5.6998 -5 3
    endloop
  endfacet
  facet normal 0 0 1
    outer loop
      vertex 5.6998 -5 3
      vertex 2.81 -4.365 3
      vertex 5.76114 -5.46593 3
    endloop
  endfacet
  facet normal 0 0 1
    outer loop
      vertex 5.76114 -5.46593 3
      vertex 2.81 -4.365 3
      vertex 5.94098 -5.9001 3
    endloop
  endfacet
  facet normal 0 0 1
    outer loop
      vertex 1.28497 -7.15569 3
      vertex 5.94098 -5.9001 3
      vertex 2.81 -4.365 3
    endloop
  endfacet
  facet normal 0 0 1
    outer loop
      vertex 5.94098 -5.9001 3
      vertex 1.3303 -7.5 3
      vertex 6.22707 -6.27293 3
    endloop
  endfacet
  facet normal 0 0 1
    outer loop
      vertex 1.28497 -7.84431 3
      vertex 6.22707 -6.27293 3
      vertex 1.3303 -7.5 3
    endloop
  endfacet
  facet normal 0 0 1
    outer loop
      vertex 6.5999 -6.55902 3
      vertex 1.28497 -7.84431 3
      vertex 1.15207 -8.16515 3
    endloop
  endfacet
  facet normal 0 0 1
    outer loop
      vertex 7.03407 -6.73886 3
      vertex 1.15207 -8.16515 3
      vertex 0.940663 -8.44066 3
    endloop
  endfacet
  facet normal 0 0 1
    outer loop
      vertex 7.03407 -6.73886 3
      vertex 0.940663 -8.44066 3
      vertex 11.5 -11.5 3
    endloop
  endfacet
  facet normal -0 0 1
    outer loop
      vertex 0.66515 -8.65207 3
      vertex 11.5 -11.5 3
      vertex 0.940663 -8.44066 3
    endloop
  endfacet
  facet normal -0 0 1
    outer loop
      vertex 0.344307 -8.78497 3
      vertex 11.5 -11.5 3
      vertex 0.66515 -8.65207 3
    endloop
  endfacet
  facet normal -0 0 1
    outer loop
      vertex 0 -8.8303 3
      vertex 11.5 -11.5 3
      vertex 0.344307 -8.78497 3
    endloop
  endfacet
  facet normal 0 0 1
    outer loop
      vertex -11.5 -11.5 3
      vertex 0 -8.8303 3
      vertex -0.344307 -8.78497 3
    endloop
  endfacet
  facet normal 0 0 1
    outer loop
      vertex -1.28497 -7.15569 3
      vertex -5.94098 -5.9001 3
      vertex -1.3303 -7.5 3
    endloop
  endfacet
  facet normal -0 0 1
    outer loop
      vertex -6.22707 -6.27293 3
      vertex -1.3303 -7.5 3
      vertex -5.94098 -5.9001 3
    endloop
  endfacet
  facet normal 0 0 1
    outer loop
      vertex -2.81 0.365 3
      vertex -5.6998 -5 3
      vertex -2.81 -4.365 3
    endloop
  endfacet
  facet normal 0 0 1
    outer loop
      vertex -5.76114 -5.46593 3
      vertex -2.81 -4.365 3
      vertex -5.6998 -5 3
    endloop
  endfacet
  facet normal 0 0 1
    outer loop
      vertex -5.94098 -5.9001 3
      vertex -2.81 -4.365 3
      vertex -5.76114 -5.46593 3
    endloop
  endfacet
  facet normal 0 0 1
    outer loop
      vertex -1.3303 -7.5 3
      vertex -6.22707 -6.27293 3
      vertex -1.28497 -7.84431 3
    endloop
  endfacet
  facet normal -0 0 1
    outer loop
      vertex -6.5999 -6.55902 3
      vertex -1.28497 -7.84431 3
      vertex -6.22707 -6.27293 3
    endloop
  endfacet
  facet normal 0 0 1
    outer loop
      vertex -1.28497 -7.84431 3
      vertex -6.5999 -6.55902 3
      vertex -1.15207 -8.16515 3
    endloop
  endfacet
  facet normal -0 0 1
    outer loop
      vertex -7.03407 -6.73886 3
      vertex -1.15207 -8.16515 3
      vertex -6.5999 -6.55902 3
    endloop
  endfacet
  facet normal 0 0 1
    outer loop
      vertex -1.15207 -8.16515 3
      vertex -7.03407 -6.73886 3
      vertex -0.940663 -8.44066 3
    endloop
  endfacet
  facet normal 0 0 1
    outer loop
      vertex -11.5 -11.5 3
      vertex -0.940663 -8.44066 3
      vertex -7.03407 -6.73886 3
    endloop
  endfacet
  facet normal 0 0 1
    outer loop
      vertex -0.940663 -8.44066 3
      vertex -11.5 -11.5 3
      vertex -0.66515 -8.65207 3
    endloop
  endfacet
  facet normal 0 0 1
    outer loop
      vertex -11.5 -11.5 3
      vertex -7.03407 -6.73886 3
      vertex -7.5 -6.8002 3
    endloop
  endfacet
  facet normal 0 0 1
    outer loop
      vertex -11.5 -11.5 3
      vertex -7.5 -6.8002 3
      vertex -7.96593 -6.73886 3
    endloop
  endfacet
  facet normal 0 0 1
    outer loop
      vertex -9.23886 -4.53407 3
      vertex -11.5 -11.5 3
      vertex -9.3002 -5 3
    endloop
  endfacet
  facet normal 0 0 1
    outer loop
      vertex 0 -8.8303 3
      vertex -11.5 -11.5 3
      vertex 11.5 -11.5 3
    endloop
  endfacet
  facet normal 0 0 1
    outer loop
      vertex -0.66515 -8.65207 3
      vertex -11.5 -11.5 3
      vertex -0.344307 -8.78497 3
    endloop
  endfacet
  facet normal 0 0 1
    outer loop
      vertex -8.4001 -6.55902 3
      vertex -11.5 -11.5 3
      vertex -7.96593 -6.73886 3
    endloop
  endfacet
  facet normal 0 0 1
    outer loop
      vertex -8.77293 -6.27293 3
      vertex -11.5 -11.5 3
      vertex -8.4001 -6.55902 3
    endloop
  endfacet
  facet normal 0 0 1
    outer loop
      vertex -9.05902 -5.9001 3
      vertex -11.5 -11.5 3
      vertex -8.77293 -6.27293 3
    endloop
  endfacet
  facet normal 0 0 1
    outer loop
      vertex -9.23886 -5.46593 3
      vertex -11.5 -11.5 3
      vertex -9.05902 -5.9001 3
    endloop
  endfacet
  facet normal 0 0 1
    outer loop
      vertex -9.3002 -5 3
      vertex -11.5 -11.5 3
      vertex -9.23886 -5.46593 3
    endloop
  endfacet
  facet normal 0 0 -1
    outer loop
      vertex -6.22707 -3.72707 0
      vertex -2.81 -4.365 0
      vertex -5.94098 -4.0999 0
    endloop
  endfacet
  facet normal 0 0 -1
    outer loop
      vertex -2.81 0.365 0
      vertex -5.76114 4.53407 0
      vertex -5.6998 5 0
    endloop
  endfacet
  facet normal 0 0 -1
    outer loop
      vertex -2.81 -4.365 0
      vertex -6.22707 -3.72707 0
      vertex -2.81 0.365 0
    endloop
  endfacet
  facet normal 0 0 -1
    outer loop
      vertex -2.81 0.365 0
      vertex -5.94098 4.0999 0
      vertex -5.76114 4.53407 0
    endloop
  endfacet
  facet normal 0 0 -1
    outer loop
      vertex -6.5999 -3.44098 0
      vertex -2.81 0.365 0
      vertex -6.22707 -3.72707 0
    endloop
  endfacet
  facet normal 0 0 -1
    outer loop
      vertex -2.81 0.365 0
      vertex -6.22707 3.72707 0
      vertex -5.94098 4.0999 0
    endloop
  endfacet
  facet normal 0 0 -1
    outer loop
      vertex -7.03407 -3.26114 0
      vertex -2.81 0.365 0
      vertex -6.5999 -3.44098 0
    endloop
  endfacet
  facet normal 0 0 -1
    outer loop
      vertex -2.81 0.365 0
      vertex -6.5999 3.44098 0
      vertex -6.22707 3.72707 0
    endloop
  endfacet
  facet normal 0 0 -1
    outer loop
      vertex -7.03407 3.26114 0
      vertex -2.81 0.365 0
      vertex -7.03407 -3.26114 0
    endloop
  endfacet
  facet normal 0 0 -1
    outer loop
      vertex -2.81 0.365 0
      vertex -7.03407 3.26114 0
      vertex -6.5999 3.44098 0
    endloop
  endfacet
  facet normal 0 0 -1
    outer loop
      vertex -7.5 -3.1998 0
      vertex -7.03407 3.26114 0
      vertex -7.03407 -3.26114 0
    endloop
  endfacet
  facet normal 0 0 -1
    outer loop
      vertex -7.5 -3.1998 0
      vertex -7.5 3.1998 0
      vertex -7.03407 3.26114 0
    endloop
  endfacet
  facet normal 0 0 -1
    outer loop
      vertex -7.96593 -3.26114 0
      vertex -7.5 3.1998 0
      vertex -7.5 -3.1998 0
    endloop
  endfacet
  facet normal 0 0 -1
    outer loop
      vertex -7.96593 -3.26114 0
      vertex -7.96593 3.26114 0
      vertex -7.5 3.1998 0
    endloop
  endfacet
  facet normal 0 0 -1
    outer loop
      vertex -8.4001 -3.44098 0
      vertex -7.96593 3.26114 0
      vertex -7.96593 -3.26114 0
    endloop
  endfacet
  facet normal 0 0 -1
    outer loop
      vertex -8.4001 -3.44098 0
      vertex -8.4001 3.44098 0
      vertex -7.96593 3.26114 0
    endloop
  endfacet
  facet normal 0 0 -1
    outer loop
      vertex -8.77293 -3.72707 0
      vertex -8.4001 3.44098 0
      vertex -8.4001 -3.44098 0
    endloop
  endfacet
  facet normal 0 0 -1
    outer loop
      vertex -8.77293 -3.72707 0
      vertex -8.77293 3.72707 0
      vertex -8.4001 3.44098 0
    endloop
  endfacet
  facet normal 0 0 -1
    outer loop
      vertex -9.05902 -4.0999 0
      vertex -8.77293 3.72707 0
      vertex -8.77293 -3.72707 0
    endloop
  endfacet
  facet normal 0 0 -1
    outer loop
      vertex -9.05902 -4.0999 0
      vertex -9.05902 4.0999 0
      vertex -8.77293 3.72707 0
    endloop
  endfacet
  facet normal 0 0 -1
    outer loop
      vertex -9.23886 -4.53407 0
      vertex -9.05902 4.0999 0
      vertex -9.05902 -4.0999 0
    endloop
  endfacet
  facet normal 0 0 -1
    outer loop
      vertex -9.23886 -4.53407 0
      vertex -9.23886 4.53407 0
      vertex -9.05902 4.0999 0
    endloop
  endfacet
  facet normal 0 0 -1
    outer loop
      vertex -11.5 -11.5 0
      vertex -9.23886 -4.53407 0
      vertex -9.3002 -5 0
    endloop
  endfacet
  facet normal 0 0 -1
    outer loop
      vertex -9.23886 -4.53407 0
      vertex -11.5 9.5 0
      vertex -9.23886 4.53407 0
    endloop
  endfacet
  facet normal 0 0 -1
    outer loop
      vertex -2.81 0.365 0
      vertex 2.81 3.535 0
      vertex 2.81 0.365 0
    endloop
  endfacet
  facet normal -0 0 -1
    outer loop
      vertex 2.81 3.535 0
      vertex -2.81 0.365 0
      vertex -2.81 3.535 0
    endloop
  endfacet
  facet normal 0 0 -1
    outer loop
      vertex 9.23886 4.53407 0
      vertex 11.5 9.5 0
      vertex 9.23886 -4.53407 0
    endloop
  endfacet
  facet normal 0 0 -1
    outer loop
      vertex 11.5 9.5 0
      vertex 9.23886 4.53407 0
      vertex 9.3002 5 0
    endloop
  endfacet
  facet normal 0 0 -1
    outer loop
      vertex 9.05902 -4.0999 0
      vertex 9.23886 4.53407 0
      vertex 9.23886 -4.53407 0
    endloop
  endfacet
  facet normal 0 0 -1
    outer loop
      vertex 9.05902 -4.0999 0
      vertex 9.05902 4.0999 0
      vertex 9.23886 4.53407 0
    endloop
  endfacet
  facet normal 0 0 -1
    outer loop
      vertex 8.77293 -3.72707 0
      vertex 9.05902 4.0999 0
      vertex 9.05902 -4.0999 0
    endloop
  endfacet
  facet normal 0 0 -1
    outer loop
      vertex 8.77293 -3.72707 0
      vertex 8.77293 3.72707 0
      vertex 9.05902 4.0999 0
    endloop
  endfacet
  facet normal 0 0 -1
    outer loop
      vertex 8.4001 -3.44098 0
      vertex 8.77293 3.72707 0
      vertex 8.77293 -3.72707 0
    endloop
  endfacet
  facet normal 0 0 -1
    outer loop
      vertex 8.4001 -3.44098 0
      vertex 8.4001 3.44098 0
      vertex 8.77293 3.72707 0
    endloop
  endfacet
  facet normal 0 0 -1
    outer loop
      vertex 7.96593 -3.26114 0
      vertex 8.4001 3.44098 0
      vertex 8.4001 -3.44098 0
    endloop
  endfacet
  facet normal 0 0 -1
    outer loop
      vertex 7.96593 -3.26114 0
      vertex 7.96593 3.26114 0
      vertex 8.4001 3.44098 0
    endloop
  endfacet
  facet normal 0 0 -1
    outer loop
      vertex 7.5 -3.1998 0
      vertex 7.96593 3.26114 0
      vertex 7.96593 -3.26114 0
    endloop
  endfacet
  facet normal 0 0 -1
    outer loop
      vertex 7.5 -3.1998 0
      vertex 7.5 3.1998 0
      vertex 7.96593 3.26114 0
    endloop
  endfacet
  facet normal 0 0 -1
    outer loop
      vertex 7.03407 -3.26114 0
      vertex 7.5 3.1998 0
      vertex 7.5 -3.1998 0
    endloop
  endfacet
  facet normal 0 0 -1
    outer loop
      vertex 7.03407 -3.26114 0
      vertex 7.03407 3.26114 0
      vertex 7.5 3.1998 0
    endloop
  endfacet
  facet normal 0 0 -1
    outer loop
      vertex 2.81 0.365 0
      vertex 7.03407 -3.26114 0
      vertex 6.5999 -3.44098 0
    endloop
  endfacet
  facet normal 0 0 -1
    outer loop
      vertex 7.03407 -3.26114 0
      vertex 2.81 0.365 0
      vertex 7.03407 3.26114 0
    endloop
  endfacet
  facet normal 0 0 -1
    outer loop
      vertex 2.81 0.365 0
      vertex 6.5999 -3.44098 0
      vertex 6.22707 -3.72707 0
    endloop
  endfacet
  facet normal -0 0 -1
    outer loop
      vertex 7.03407 3.26114 0
      vertex 2.81 0.365 0
      vertex 6.5999 3.44098 0
    endloop
  endfacet
  facet normal 0 0 -1
    outer loop
      vertex 2.81 -4.365 0
      vertex 6.22707 -3.72707 0
      vertex 5.94098 -4.0999 0
    endloop
  endfacet
  facet normal -0 0 -1
    outer loop
      vertex 6.5999 3.44098 0
      vertex 2.81 0.365 0
      vertex 6.22707 3.72707 0
    endloop
  endfacet
  facet normal 0 0 -1
    outer loop
      vertex 2.81 -4.365 0
      vertex 5.94098 -4.0999 0
      vertex 5.76114 -4.53407 0
    endloop
  endfacet
  facet normal 0 0 -1
    outer loop
      vertex 2.81 3.535 0
      vertex 6.22707 3.72707 0
      vertex 2.81 0.365 0
    endloop
  endfacet
  facet normal 0 0 -1
    outer loop
      vertex 2.81 -4.365 0
      vertex 5.76114 -4.53407 0
      vertex 5.6998 -5 0
    endloop
  endfacet
  facet normal -0 0 -1
    outer loop
      vertex 6.22707 3.72707 0
      vertex 2.81 3.535 0
      vertex 5.94098 4.0999 0
    endloop
  endfacet
  facet normal 0 0 -1
    outer loop
      vertex 9.23886 -4.53407 0
      vertex 11.5 -11.5 0
      vertex 9.3002 -5 0
    endloop
  endfacet
  facet normal 0 0 -1
    outer loop
      vertex 11.5 -11.5 0
      vertex 9.23886 -5.46593 0
      vertex 9.3002 -5 0
    endloop
  endfacet
  facet normal 0 0 -1
    outer loop
      vertex 11.5 -11.5 0
      vertex 9.05902 -5.9001 0
      vertex 9.23886 -5.46593 0
    endloop
  endfacet
  facet normal 0 0 -1
    outer loop
      vertex 11.5 -11.5 0
      vertex 8.77293 -6.27293 0
      vertex 9.05902 -5.9001 0
    endloop
  endfacet
  facet normal 0 0 -1
    outer loop
      vertex 11.5 -11.5 0
      vertex 8.4001 -6.55902 0
      vertex 8.77293 -6.27293 0
    endloop
  endfacet
  facet normal 0 0 -1
    outer loop
      vertex 11.5 -11.5 0
      vertex 7.96593 -6.73886 0
      vertex 8.4001 -6.55902 0
    endloop
  endfacet
  facet normal 0 0 -1
    outer loop
      vertex 11.5 -11.5 0
      vertex 7.5 -6.8002 0
      vertex 7.96593 -6.73886 0
    endloop
  endfacet
  facet normal 0 0 -1
    outer loop
      vertex 11.5 -11.5 0
      vertex 7.03407 -6.73886 0
      vertex 7.5 -6.8002 0
    endloop
  endfacet
  facet normal 0 0 -1
    outer loop
      vertex 0.940663 -8.44066 0
      vertex 7.03407 -6.73886 0
      vertex 11.5 -11.5 0
    endloop
  endfacet
  facet normal 0 -0 -1
    outer loop
      vertex 1.15207 -8.16515 0
      vertex 7.03407 -6.73886 0
      vertex 0.940663 -8.44066 0
    endloop
  endfacet
  facet normal -0 0 -1
    outer loop
      vertex 6.22707 -3.72707 0
      vertex 2.81 -4.365 0
      vertex 2.81 0.365 0
    endloop
  endfacet
  facet normal 0 0 -1
    outer loop
      vertex 5.76114 -5.46593 0
      vertex 2.81 -4.365 0
      vertex 5.6998 -5 0
    endloop
  endfacet
  facet normal 0 0 -1
    outer loop
      vertex 5.94098 -5.9001 0
      vertex 2.81 -4.365 0
      vertex 5.76114 -5.46593 0
    endloop
  endfacet
  facet normal 0 0 -1
    outer loop
      vertex 1.3303 -7.5 0
      vertex 5.94098 -5.9001 0
      vertex 6.22707 -6.27293 0
    endloop
  endfacet
  facet normal -0 0 -1
    outer loop
      vertex 7.03407 -6.73886 0
      vertex 1.15207 -8.16515 0
      vertex 6.5999 -6.55902 0
    endloop
  endfacet
  facet normal 0 0 -1
    outer loop
      vertex 5.94098 -5.9001 0
      vertex 1.3303 -7.5 0
      vertex 1.28497 -7.15569 0
    endloop
  endfacet
  facet normal 0 0 -1
    outer loop
      vertex 6.22707 -6.27293 0
      vertex 1.28497 -7.84431 0
      vertex 1.3303 -7.5 0
    endloop
  endfacet
  facet normal -0 0 -1
    outer loop
      vertex 6.5999 -6.55902 0
      vertex 1.28497 -7.84431 0
      vertex 6.22707 -6.27293 0
    endloop
  endfacet
  facet normal 0 -0 -1
    outer loop
      vertex 1.28497 -7.84431 0
      vertex 6.5999 -6.55902 0
      vertex 1.15207 -8.16515 0
    endloop
  endfacet
  facet normal 0 0 -1
    outer loop
      vertex 11.5 -11.5 0
      vertex 0.66515 -8.65207 0
      vertex 0.940663 -8.44066 0
    endloop
  endfacet
  facet normal 0 0 -1
    outer loop
      vertex 11.5 -11.5 0
      vertex 0.344307 -8.78497 0
      vertex 0.66515 -8.65207 0
    endloop
  endfacet
  facet normal 0 0 -1
    outer loop
      vertex 11.5 -11.5 0
      vertex 0 -8.8303 0
      vertex 0.344307 -8.78497 0
    endloop
  endfacet
  facet normal 0 0 -1
    outer loop
      vertex -11.5 -11.5 0
      vertex 0 -8.8303 0
      vertex 11.5 -11.5 0
    endloop
  endfacet
  facet normal 0 0 -1
    outer loop
      vertex -6.22707 -6.27293 0
      vertex -1.3303 -7.5 0
      vertex -1.28497 -7.84431 0
    endloop
  endfacet
  facet normal 0 0 -1
    outer loop
      vertex -6.5999 -6.55902 0
      vertex -1.28497 -7.84431 0
      vertex -1.15207 -8.16515 0
    endloop
  endfacet
  facet normal 0 0 -1
    outer loop
      vertex -5.76114 -4.53407 0
      vertex -2.81 -4.365 0
      vertex -5.6998 -5 0
    endloop
  endfacet
  facet normal 0 0 -1
    outer loop
      vertex -5.94098 -4.0999 0
      vertex -2.81 -4.365 0
      vertex -5.76114 -4.53407 0
    endloop
  endfacet
  facet normal 0 0 -1
    outer loop
      vertex -2.81 0.365 0
      vertex -5.6998 5 0
      vertex -2.81 3.535 0
    endloop
  endfacet
  facet normal 0 0 -1
    outer loop
      vertex -1.3303 -7.5 0
      vertex -5.94098 -5.9001 0
      vertex -2.81 -4.365 0
    endloop
  endfacet
  facet normal 0 0 -1
    outer loop
      vertex -7.03407 -6.73886 0
      vertex -1.15207 -8.16515 0
      vertex -0.940663 -8.44066 0
    endloop
  endfacet
  facet normal 0 0 -1
    outer loop
      vertex -11.5 -11.5 0
      vertex -0.940663 -8.44066 0
      vertex -0.66515 -8.65207 0
    endloop
  endfacet
  facet normal 0 0 -1
    outer loop
      vertex -2.81 -4.365 0
      vertex -5.76114 -5.46593 0
      vertex -5.6998 -5 0
    endloop
  endfacet
  facet normal 0 0 -1
    outer loop
      vertex -2.81 -4.365 0
      vertex -5.94098 -5.9001 0
      vertex -5.76114 -5.46593 0
    endloop
  endfacet
  facet normal 0 0 -1
    outer loop
      vertex -1.3303 -7.5 0
      vertex -6.22707 -6.27293 0
      vertex -5.94098 -5.9001 0
    endloop
  endfacet
  facet normal 0 0 -1
    outer loop
      vertex -1.28497 -7.84431 0
      vertex -6.5999 -6.55902 0
      vertex -6.22707 -6.27293 0
    endloop
  endfacet
  facet normal 0 0 -1
    outer loop
      vertex -11.5 -11.5 0
      vertex -0.66515 -8.65207 0
      vertex -0.344307 -8.78497 0
    endloop
  endfacet
  facet normal 0 0 -1
    outer loop
      vertex -1.15207 -8.16515 0
      vertex -7.03407 -6.73886 0
      vertex -6.5999 -6.55902 0
    endloop
  endfacet
  facet normal -0 0 -1
    outer loop
      vertex -0.940663 -8.44066 0
      vertex -11.5 -11.5 0
      vertex -7.03407 -6.73886 0
    endloop
  endfacet
  facet normal 0 0 -1
    outer loop
      vertex -7.03407 -6.73886 0
      vertex -11.5 -11.5 0
      vertex -7.5 -6.8002 0
    endloop
  endfacet
  facet normal -0 0 -1
    outer loop
      vertex -9.23886 -4.53407 0
      vertex -11.5 -11.5 0
      vertex -11.5 9.5 0
    endloop
  endfacet
  facet normal -0 0 -1
    outer loop
      vertex -9.23886 -5.46593 0
      vertex -11.5 -11.5 0
      vertex -9.3002 -5 0
    endloop
  endfacet
  facet normal -0 0 -1
    outer loop
      vertex -9.05902 -5.9001 0
      vertex -11.5 -11.5 0
      vertex -9.23886 -5.46593 0
    endloop
  endfacet
  facet normal -0 0 -1
    outer loop
      vertex -8.77293 -6.27293 0
      vertex -11.5 -11.5 0
      vertex -9.05902 -5.9001 0
    endloop
  endfacet
  facet normal -0 0 -1
    outer loop
      vertex -8.4001 -6.55902 0
      vertex -11.5 -11.5 0
      vertex -8.77293 -6.27293 0
    endloop
  endfacet
  facet normal -0 0 -1
    outer loop
      vertex -7.96593 -6.73886 0
      vertex -11.5 -11.5 0
      vertex -8.4001 -6.55902 0
    endloop
  endfacet
  facet normal -0 0 -1
    outer loop
      vertex -7.5 -6.8002 0
      vertex -11.5 -11.5 0
      vertex -7.96593 -6.73886 0
    endloop
  endfacet
  facet normal -0 0 -1
    outer loop
      vertex 0 -8.8303 0
      vertex -11.5 -11.5 0
      vertex -0.344307 -8.78497 0
    endloop
  endfacet
  facet normal 0 0 -1
    outer loop
      vertex 11.5 -11.5 0
      vertex 9.23886 -4.53407 0
      vertex 11.5 9.5 0
    endloop
  endfacet
  facet normal 0 0 -1
    outer loop
      vertex 9.23886 5.46593 0
      vertex 11.5 9.5 0
      vertex 9.3002 5 0
    endloop
  endfacet
  facet normal 0 0 -1
    outer loop
      vertex 9.05902 5.9001 0
      vertex 11.5 9.5 0
      vertex 9.23886 5.46593 0
    endloop
  endfacet
  facet normal 0 0 -1
    outer loop
      vertex 8.77293 6.27293 0
      vertex 11.5 9.5 0
      vertex 9.05902 5.9001 0
    endloop
  endfacet
  facet normal 0 0 -1
    outer loop
      vertex 8.4001 6.55902 0
      vertex 11.5 9.5 0
      vertex 8.77293 6.27293 0
    endloop
  endfacet
  facet normal 0 0 -1
    outer loop
      vertex 7.96593 6.73886 0
      vertex 11.5 9.5 0
      vertex 8.4001 6.55902 0
    endloop
  endfacet
  facet normal 0 0 -1
    outer loop
      vertex 7.5 6.8002 0
      vertex 11.5 9.5 0
      vertex 7.96593 6.73886 0
    endloop
  endfacet
  facet normal 0 0 -1
    outer loop
      vertex 2.81 8.265 0
      vertex 7.5 6.8002 0
      vertex 7.03407 6.73886 0
    endloop
  endfacet
  facet normal 0 0 -1
    outer loop
      vertex 2.81 8.265 0
      vertex 7.03407 6.73886 0
      vertex 6.5999 6.55902 0
    endloop
  endfacet
  facet normal -0 0 -1
    outer loop
      vertex 5.94098 4.0999 0
      vertex 2.81 3.535 0
      vertex 5.76114 4.53407 0
    endloop
  endfacet
  facet normal -0 0 -1
    outer loop
      vertex 5.76114 4.53407 0
      vertex 2.81 3.535 0
      vertex 5.6998 5 0
    endloop
  endfacet
  facet normal -0 0 -1
    outer loop
      vertex 5.6998 5 0
      vertex 2.81 3.535 0
      vertex 5.76114 5.46593 0
    endloop
  endfacet
  facet normal 0 0 -1
    outer loop
      vertex 2.81 8.265 0
      vertex 5.76114 5.46593 0
      vertex 2.81 3.535 0
    endloop
  endfacet
  facet normal 0 0 -1
    outer loop
      vertex 5.76114 5.46593 0
      vertex 2.81 8.265 0
      vertex 5.94098 5.9001 0
    endloop
  endfacet
  facet normal 0 0 -1
    outer loop
      vertex 5.94098 5.9001 0
      vertex 2.81 8.265 0
      vertex 6.22707 6.27293 0
    endloop
  endfacet
  facet normal 0 0 -1
    outer loop
      vertex 2.81 8.265 0
      vertex 6.5999 6.55902 0
      vertex 6.22707 6.27293 0
    endloop
  endfacet
  facet normal 0 0 -1
    outer loop
      vertex 7.5 6.8002 0
      vertex 2.81 8.265 0
      vertex 11.5 9.5 0
    endloop
  endfacet
  facet normal 0 0 -1
    outer loop
      vertex -2.81 8.265 0
      vertex 11.5 9.5 0
      vertex 2.81 8.265 0
    endloop
  endfacet
  facet normal 0 0 -1
    outer loop
      vertex -5.76114 5.46593 0
      vertex -2.81 3.535 0
      vertex -5.6998 5 0
    endloop
  endfacet
  facet normal 0 0 -1
    outer loop
      vertex -2.81 3.535 0
      vertex -5.76114 5.46593 0
      vertex -2.81 8.265 0
    endloop
  endfacet
  facet normal 0 0 -1
    outer loop
      vertex -5.94098 5.9001 0
      vertex -2.81 8.265 0
      vertex -5.76114 5.46593 0
    endloop
  endfacet
  facet normal 0 0 -1
    outer loop
      vertex -6.22707 6.27293 0
      vertex -2.81 8.265 0
      vertex -5.94098 5.9001 0
    endloop
  endfacet
  facet normal 0 0 -1
    outer loop
      vertex -6.5999 6.55902 0
      vertex -2.81 8.265 0
      vertex -6.22707 6.27293 0
    endloop
  endfacet
  facet normal 0 0 -1
    outer loop
      vertex -7.03407 6.73886 0
      vertex -2.81 8.265 0
      vertex -6.5999 6.55902 0
    endloop
  endfacet
  facet normal 0 0 -1
    outer loop
      vertex -7.5 6.8002 0
      vertex -2.81 8.265 0
      vertex -7.03407 6.73886 0
    endloop
  endfacet
  facet normal 0 0 -1
    outer loop
      vertex -11.5 9.5 0
      vertex -7.5 6.8002 0
      vertex -7.96593 6.73886 0
    endloop
  endfacet
  facet normal 0 0 -1
    outer loop
      vertex -9.23886 4.53407 0
      vertex -11.5 9.5 0
      vertex -9.3002 5 0
    endloop
  endfacet
  facet normal 0 0 -1
    outer loop
      vertex -2.81 8.265 0
      vertex -11.5 9.5 0
      vertex 11.5 9.5 0
    endloop
  endfacet
  facet normal 0 0 -1
    outer loop
      vertex -7.5 6.8002 0
      vertex -11.5 9.5 0
      vertex -2.81 8.265 0
    endloop
  endfacet
  facet normal 0 0 -1
    outer loop
      vertex -8.4001 6.55902 0
      vertex -11.5 9.5 0
      vertex -7.96593 6.73886 0
    endloop
  endfacet
  facet normal 0 0 -1
    outer loop
      vertex -8.77293 6.27293 0
      vertex -11.5 9.5 0
      vertex -8.4001 6.55902 0
    endloop
  endfacet
  facet normal 0 0 -1
    outer loop
      vertex -9.05902 5.9001 0
      vertex -11.5 9.5 0
      vertex -8.77293 6.27293 0
    endloop
  endfacet
  facet normal 0 0 -1
    outer loop
      vertex -9.23886 5.46593 0
      vertex -11.5 9.5 0
      vertex -9.05902 5.9001 0
    endloop
  endfacet
  facet normal 0 0 -1
    outer loop
      vertex -9.3002 5 0
      vertex -11.5 9.5 0
      vertex -9.23886 5.46593 0
    endloop
  endfacet
  facet normal -0 0 -1
    outer loop
      vertex 5.94098 -5.9001 0
      vertex 1.28497 -7.15569 0
      vertex 2.81 -4.365 0
    endloop
  endfacet
  facet normal 0 0 -1
    outer loop
      vertex 1.15207 -6.83485 0
      vertex 2.81 -4.365 0
      vertex 1.28497 -7.15569 0
    endloop
  endfacet
  facet normal 0 0 -1
    outer loop
      vertex 0.940663 -6.55934 0
      vertex 2.81 -4.365 0
      vertex 1.15207 -6.83485 0
    endloop
  endfacet
  facet normal 0 0 -1
    outer loop
      vertex 0.66515 -6.34793 0
      vertex 2.81 -4.365 0
      vertex 0.940663 -6.55934 0
    endloop
  endfacet
  facet normal 0 0 -1
    outer loop
      vertex 0.344307 -6.21503 0
      vertex 2.81 -4.365 0
      vertex 0.66515 -6.34793 0
    endloop
  endfacet
  facet normal 0 0 -1
    outer loop
      vertex 0 -6.1697 0
      vertex 2.81 -4.365 0
      vertex 0.344307 -6.21503 0
    endloop
  endfacet
  facet normal 0 0 -1
    outer loop
      vertex -2.81 -4.365 0
      vertex 0 -6.1697 0
      vertex -0.344307 -6.21503 0
    endloop
  endfacet
  facet normal 0 0 -1
    outer loop
      vertex -2.81 -4.365 0
      vertex -0.344307 -6.21503 0
      vertex -0.66515 -6.34793 0
    endloop
  endfacet
  facet normal 0 0 -1
    outer loop
      vertex 0 -6.1697 0
      vertex -2.81 -4.365 0
      vertex 2.81 -4.365 0
    endloop
  endfacet
  facet normal 0 0 -1
    outer loop
      vertex -0.940663 -6.55934 0
      vertex -2.81 -4.365 0
      vertex -0.66515 -6.34793 0
    endloop
  endfacet
  facet normal 0 0 -1
    outer loop
      vertex -1.15207 -6.83485 0
      vertex -2.81 -4.365 0
      vertex -0.940663 -6.55934 0
    endloop
  endfacet
  facet normal 0 0 -1
    outer loop
      vertex -1.28497 -7.15569 0
      vertex -2.81 -4.365 0
      vertex -1.15207 -6.83485 0
    endloop
  endfacet
  facet normal 0 0 -1
    outer loop
      vertex -2.81 -4.365 0
      vertex -1.28497 -7.15569 0
      vertex -1.3303 -7.5 0
    endloop
  endfacet
  facet normal -1 0 0
    outer loop
      vertex -11.5 -11.5 0
      vertex -11.5 9.5 3
      vertex -11.5 9.5 0
    endloop
  endfacet
  facet normal -1 -0 0
    outer loop
      vertex -11.5 9.5 3
      vertex -11.5 -11.5 0
      vertex -11.5 -11.5 3
    endloop
  endfacet
  facet normal 0 1 -0
    outer loop
      vertex 11.5 9.5 0
      vertex -11.5 9.5 3
      vertex 11.5 9.5 3
    endloop
  endfacet
  facet normal 0 1 0
    outer loop
      vertex -11.5 9.5 3
      vertex 11.5 9.5 0
      vertex -11.5 9.5 0
    endloop
  endfacet
  facet normal 0 -1 0
    outer loop
      vertex -11.5 -11.5 0
      vertex 11.5 -11.5 3
      vertex -11.5 -11.5 3
    endloop
  endfacet
  facet normal 0 -1 -0
    outer loop
      vertex 11.5 -11.5 3
      vertex -11.5 -11.5 0
      vertex 11.5 -11.5 0
    endloop
  endfacet
  facet normal -0.923879 -0.382685 0
    outer loop
      vertex -5.76114 -4.53407 0
      vertex -5.94098 -4.0999 3
      vertex -5.94098 -4.0999 0
    endloop
  endfacet
  facet normal -0.923879 -0.382685 0
    outer loop
      vertex -5.94098 -4.0999 3
      vertex -5.76114 -4.53407 0
      vertex -5.76114 -4.53407 3
    endloop
  endfacet
  facet normal -0.991445 -0.130524 0
    outer loop
      vertex -5.6998 -5 0
      vertex -5.76114 -4.53407 3
      vertex -5.76114 -4.53407 0
    endloop
  endfacet
  facet normal -0.991445 -0.130524 0
    outer loop
      vertex -5.76114 -4.53407 3
      vertex -5.6998 -5 0
      vertex -5.6998 -5 3
    endloop
  endfacet
  facet normal -0.130524 0.991445 0
    outer loop
      vertex -7.03407 -6.73886 0
      vertex -7.5 -6.8002 3
      vertex -7.03407 -6.73886 3
    endloop
  endfacet
  facet normal -0.130524 0.991445 0
    outer loop
      vertex -7.5 -6.8002 3
      vertex -7.03407 -6.73886 0
      vertex -7.5 -6.8002 0
    endloop
  endfacet
  facet normal -0.382685 0.923879 0
    outer loop
      vertex -6.5999 -6.55902 0
      vertex -7.03407 -6.73886 3
      vertex -6.5999 -6.55902 3
    endloop
  endfacet
  facet normal -0.382685 0.923879 0
    outer loop
      vertex -7.03407 -6.73886 3
      vertex -6.5999 -6.55902 0
      vertex -7.03407 -6.73886 0
    endloop
  endfacet
  facet normal -0.382685 -0.923879 0
    outer loop
      vertex -7.03407 -3.26114 0
      vertex -6.5999 -3.44098 3
      vertex -7.03407 -3.26114 3
    endloop
  endfacet
  facet normal -0.382685 -0.923879 -0
    outer loop
      vertex -6.5999 -3.44098 3
      vertex -7.03407 -3.26114 0
      vertex -6.5999 -3.44098 0
    endloop
  endfacet
  facet normal 0.130524 -0.991445 0
    outer loop
      vertex -7.96593 -3.26114 0
      vertex -7.5 -3.1998 3
      vertex -7.96593 -3.26114 3
    endloop
  endfacet
  facet normal 0.130524 -0.991445 0
    outer loop
      vertex -7.5 -3.1998 3
      vertex -7.96593 -3.26114 0
      vertex -7.5 -3.1998 0
    endloop
  endfacet
  facet normal 0.608771 -0.793346 0
    outer loop
      vertex -8.77293 -3.72707 0
      vertex -8.4001 -3.44098 3
      vertex -8.77293 -3.72707 3
    endloop
  endfacet
  facet normal 0.608771 -0.793346 0
    outer loop
      vertex -8.4001 -3.44098 3
      vertex -8.77293 -3.72707 0
      vertex -8.4001 -3.44098 0
    endloop
  endfacet
  facet normal 0.991445 -0.130524 0
    outer loop
      vertex -9.3002 -5 3
      vertex -9.23886 -4.53407 0
      vertex -9.23886 -4.53407 3
    endloop
  endfacet
  facet normal 0.991445 -0.130524 0
    outer loop
      vertex -9.23886 -4.53407 0
      vertex -9.3002 -5 3
      vertex -9.3002 -5 0
    endloop
  endfacet
  facet normal -0.793346 0.608771 0
    outer loop
      vertex -6.22707 -6.27293 0
      vertex -5.94098 -5.9001 3
      vertex -5.94098 -5.9001 0
    endloop
  endfacet
  facet normal -0.793346 0.608771 0
    outer loop
      vertex -5.94098 -5.9001 3
      vertex -6.22707 -6.27293 0
      vertex -6.22707 -6.27293 3
    endloop
  endfacet
  facet normal -0.608771 0.793346 0
    outer loop
      vertex -6.22707 -6.27293 0
      vertex -6.5999 -6.55902 3
      vertex -6.22707 -6.27293 3
    endloop
  endfacet
  facet normal -0.608771 0.793346 0
    outer loop
      vertex -6.5999 -6.55902 3
      vertex -6.22707 -6.27293 0
      vertex -6.5999 -6.55902 0
    endloop
  endfacet
  facet normal 0.991445 0.130524 0
    outer loop
      vertex -9.23886 -5.46593 3
      vertex -9.3002 -5 0
      vertex -9.3002 -5 3
    endloop
  endfacet
  facet normal 0.991445 0.130524 0
    outer loop
      vertex -9.3002 -5 0
      vertex -9.23886 -5.46593 3
      vertex -9.23886 -5.46593 0
    endloop
  endfacet
  facet normal 0.793346 -0.608771 0
    outer loop
      vertex -9.05902 -4.0999 3
      vertex -8.77293 -3.72707 0
      vertex -8.77293 -3.72707 3
    endloop
  endfacet
  facet normal 0.793346 -0.608771 0
    outer loop
      vertex -8.77293 -3.72707 0
      vertex -9.05902 -4.0999 3
      vertex -9.05902 -4.0999 0
    endloop
  endfacet
  facet normal 0.130524 0.991445 -0
    outer loop
      vertex -7.5 -6.8002 0
      vertex -7.96593 -6.73886 3
      vertex -7.5 -6.8002 3
    endloop
  endfacet
  facet normal 0.130524 0.991445 0
    outer loop
      vertex -7.96593 -6.73886 3
      vertex -7.5 -6.8002 0
      vertex -7.96593 -6.73886 0
    endloop
  endfacet
  facet normal -0.130524 -0.991445 0
    outer loop
      vertex -7.5 -3.1998 0
      vertex -7.03407 -3.26114 3
      vertex -7.5 -3.1998 3
    endloop
  endfacet
  facet normal -0.130524 -0.991445 -0
    outer loop
      vertex -7.03407 -3.26114 3
      vertex -7.5 -3.1998 0
      vertex -7.03407 -3.26114 0
    endloop
  endfacet
  facet normal 0.608771 0.793346 -0
    outer loop
      vertex -8.4001 -6.55902 0
      vertex -8.77293 -6.27293 3
      vertex -8.4001 -6.55902 3
    endloop
  endfacet
  facet normal 0.608771 0.793346 0
    outer loop
      vertex -8.77293 -6.27293 3
      vertex -8.4001 -6.55902 0
      vertex -8.77293 -6.27293 0
    endloop
  endfacet
  facet normal 0.382685 0.923879 -0
    outer loop
      vertex -7.96593 -6.73886 0
      vertex -8.4001 -6.55902 3
      vertex -7.96593 -6.73886 3
    endloop
  endfacet
  facet normal 0.382685 0.923879 0
    outer loop
      vertex -8.4001 -6.55902 3
      vertex -7.96593 -6.73886 0
      vertex -8.4001 -6.55902 0
    endloop
  endfacet
  facet normal 0.382685 -0.923879 0
    outer loop
      vertex -8.4001 -3.44098 0
      vertex -7.96593 -3.26114 3
      vertex -8.4001 -3.44098 3
    endloop
  endfacet
  facet normal 0.382685 -0.923879 0
    outer loop
      vertex -7.96593 -3.26114 3
      vertex -8.4001 -3.44098 0
      vertex -7.96593 -3.26114 0
    endloop
  endfacet
  facet normal 0.793346 0.608771 0
    outer loop
      vertex -8.77293 -6.27293 3
      vertex -9.05902 -5.9001 0
      vertex -9.05902 -5.9001 3
    endloop
  endfacet
  facet normal 0.793346 0.608771 0
    outer loop
      vertex -9.05902 -5.9001 0
      vertex -8.77293 -6.27293 3
      vertex -8.77293 -6.27293 0
    endloop
  endfacet
  facet normal -0.793346 -0.608771 0
    outer loop
      vertex -5.94098 -4.0999 0
      vertex -6.22707 -3.72707 3
      vertex -6.22707 -3.72707 0
    endloop
  endfacet
  facet normal -0.793346 -0.608771 0
    outer loop
      vertex -6.22707 -3.72707 3
      vertex -5.94098 -4.0999 0
      vertex -5.94098 -4.0999 3
    endloop
  endfacet
  facet normal -0.923879 0.382685 0
    outer loop
      vertex -5.94098 -5.9001 0
      vertex -5.76114 -5.46593 3
      vertex -5.76114 -5.46593 0
    endloop
  endfacet
  facet normal -0.923879 0.382685 0
    outer loop
      vertex -5.76114 -5.46593 3
      vertex -5.94098 -5.9001 0
      vertex -5.94098 -5.9001 3
    endloop
  endfacet
  facet normal -0.991445 0.130524 0
    outer loop
      vertex -5.76114 -5.46593 0
      vertex -5.6998 -5 3
      vertex -5.6998 -5 0
    endloop
  endfacet
  facet normal -0.991445 0.130524 0
    outer loop
      vertex -5.6998 -5 3
      vertex -5.76114 -5.46593 0
      vertex -5.76114 -5.46593 3
    endloop
  endfacet
  facet normal -0.608771 -0.793346 0
    outer loop
      vertex -6.5999 -3.44098 0
      vertex -6.22707 -3.72707 3
      vertex -6.5999 -3.44098 3
    endloop
  endfacet
  facet normal -0.608771 -0.793346 -0
    outer loop
      vertex -6.22707 -3.72707 3
      vertex -6.5999 -3.44098 0
      vertex -6.22707 -3.72707 0
    endloop
  endfacet
  facet normal 0.923879 0.382685 0
    outer loop
      vertex -9.05902 -5.9001 3
      vertex -9.23886 -5.46593 0
      vertex -9.23886 -5.46593 3
    endloop
  endfacet
  facet normal 0.923879 0.382685 0
    outer loop
      vertex -9.23886 -5.46593 0
      vertex -9.05902 -5.9001 3
      vertex -9.05902 -5.9001 0
    endloop
  endfacet
  facet normal 0.923879 -0.382685 0
    outer loop
      vertex -9.23886 -4.53407 3
      vertex -9.05902 -4.0999 0
      vertex -9.05902 -4.0999 3
    endloop
  endfacet
  facet normal 0.923879 -0.382685 0
    outer loop
      vertex -9.05902 -4.0999 0
      vertex -9.23886 -4.53407 3
      vertex -9.23886 -4.53407 0
    endloop
  endfacet
  facet normal 0.793346 -0.608771 0
    outer loop
      vertex -9.05902 5.9001 3
      vertex -8.77293 6.27293 0
      vertex -8.77293 6.27293 3
    endloop
  endfacet
  facet normal 0.793346 -0.608771 0
    outer loop
      vertex -8.77293 6.27293 0
      vertex -9.05902 5.9001 3
      vertex -9.05902 5.9001 0
    endloop
  endfacet
  facet normal -0.923879 -0.382685 0
    outer loop
      vertex -5.76114 5.46593 0
      vertex -5.94098 5.9001 3
      vertex -5.94098 5.9001 0
    endloop
  endfacet
  facet normal -0.923879 -0.382685 0
    outer loop
      vertex -5.94098 5.9001 3
      vertex -5.76114 5.46593 0
      vertex -5.76114 5.46593 3
    endloop
  endfacet
  facet normal -0.991445 -0.130524 0
    outer loop
      vertex -5.6998 5 0
      vertex -5.76114 5.46593 3
      vertex -5.76114 5.46593 0
    endloop
  endfacet
  facet normal -0.991445 -0.130524 0
    outer loop
      vertex -5.76114 5.46593 3
      vertex -5.6998 5 0
      vertex -5.6998 5 3
    endloop
  endfacet
  facet normal -0.991445 0.130524 0
    outer loop
      vertex -5.76114 4.53407 0
      vertex -5.6998 5 3
      vertex -5.6998 5 0
    endloop
  endfacet
  facet normal -0.991445 0.130524 0
    outer loop
      vertex -5.6998 5 3
      vertex -5.76114 4.53407 0
      vertex -5.76114 4.53407 3
    endloop
  endfacet
  facet normal 0.608771 -0.793346 0
    outer loop
      vertex -8.77293 6.27293 0
      vertex -8.4001 6.55902 3
      vertex -8.77293 6.27293 3
    endloop
  endfacet
  facet normal 0.608771 -0.793346 0
    outer loop
      vertex -8.4001 6.55902 3
      vertex -8.77293 6.27293 0
      vertex -8.4001 6.55902 0
    endloop
  endfacet
  facet normal 0.608771 0.793346 -0
    outer loop
      vertex -8.4001 3.44098 0
      vertex -8.77293 3.72707 3
      vertex -8.4001 3.44098 3
    endloop
  endfacet
  facet normal 0.608771 0.793346 0
    outer loop
      vertex -8.77293 3.72707 3
      vertex -8.4001 3.44098 0
      vertex -8.77293 3.72707 0
    endloop
  endfacet
  facet normal -0.923879 0.382685 0
    outer loop
      vertex -5.94098 4.0999 0
      vertex -5.76114 4.53407 3
      vertex -5.76114 4.53407 0
    endloop
  endfacet
  facet normal -0.923879 0.382685 0
    outer loop
      vertex -5.76114 4.53407 3
      vertex -5.94098 4.0999 0
      vertex -5.94098 4.0999 3
    endloop
  endfacet
  facet normal -0.382685 -0.923879 0
    outer loop
      vertex -7.03407 6.73886 0
      vertex -6.5999 6.55902 3
      vertex -7.03407 6.73886 3
    endloop
  endfacet
  facet normal -0.382685 -0.923879 -0
    outer loop
      vertex -6.5999 6.55902 3
      vertex -7.03407 6.73886 0
      vertex -6.5999 6.55902 0
    endloop
  endfacet
  facet normal 0.991445 -0.130524 0
    outer loop
      vertex -9.3002 5 3
      vertex -9.23886 5.46593 0
      vertex -9.23886 5.46593 3
    endloop
  endfacet
  facet normal 0.991445 -0.130524 0
    outer loop
      vertex -9.23886 5.46593 0
      vertex -9.3002 5 3
      vertex -9.3002 5 0
    endloop
  endfacet
  facet normal 0.923879 -0.382685 0
    outer loop
      vertex -9.23886 5.46593 3
      vertex -9.05902 5.9001 0
      vertex -9.05902 5.9001 3
    endloop
  endfacet
  facet normal 0.923879 -0.382685 0
    outer loop
      vertex -9.05902 5.9001 0
      vertex -9.23886 5.46593 3
      vertex -9.23886 5.46593 0
    endloop
  endfacet
  facet normal 0.793346 0.608771 0
    outer loop
      vertex -8.77293 3.72707 3
      vertex -9.05902 4.0999 0
      vertex -9.05902 4.0999 3
    endloop
  endfacet
  facet normal 0.793346 0.608771 0
    outer loop
      vertex -9.05902 4.0999 0
      vertex -8.77293 3.72707 3
      vertex -8.77293 3.72707 0
    endloop
  endfacet
  facet normal -0.382685 0.923879 0
    outer loop
      vertex -6.5999 3.44098 0
      vertex -7.03407 3.26114 3
      vertex -6.5999 3.44098 3
    endloop
  endfacet
  facet normal -0.382685 0.923879 0
    outer loop
      vertex -7.03407 3.26114 3
      vertex -6.5999 3.44098 0
      vertex -7.03407 3.26114 0
    endloop
  endfacet
  facet normal -0.130524 -0.991445 0
    outer loop
      vertex -7.5 6.8002 0
      vertex -7.03407 6.73886 3
      vertex -7.5 6.8002 3
    endloop
  endfacet
  facet normal -0.130524 -0.991445 -0
    outer loop
      vertex -7.03407 6.73886 3
      vertex -7.5 6.8002 0
      vertex -7.03407 6.73886 0
    endloop
  endfacet
  facet normal -0.130524 0.991445 0
    outer loop
      vertex -7.03407 3.26114 0
      vertex -7.5 3.1998 3
      vertex -7.03407 3.26114 3
    endloop
  endfacet
  facet normal -0.130524 0.991445 0
    outer loop
      vertex -7.5 3.1998 3
      vertex -7.03407 3.26114 0
      vertex -7.5 3.1998 0
    endloop
  endfacet
  facet normal 0.382685 -0.923879 0
    outer loop
      vertex -8.4001 6.55902 0
      vertex -7.96593 6.73886 3
      vertex -8.4001 6.55902 3
    endloop
  endfacet
  facet normal 0.382685 -0.923879 0
    outer loop
      vertex -7.96593 6.73886 3
      vertex -8.4001 6.55902 0
      vertex -7.96593 6.73886 0
    endloop
  endfacet
  facet normal 0.991445 0.130524 0
    outer loop
      vertex -9.23886 4.53407 3
      vertex -9.3002 5 0
      vertex -9.3002 5 3
    endloop
  endfacet
  facet normal 0.991445 0.130524 0
    outer loop
      vertex -9.3002 5 0
      vertex -9.23886 4.53407 3
      vertex -9.23886 4.53407 0
    endloop
  endfacet
  facet normal -0.793346 0.608771 0
    outer loop
      vertex -6.22707 3.72707 0
      vertex -5.94098 4.0999 3
      vertex -5.94098 4.0999 0
    endloop
  endfacet
  facet normal -0.793346 0.608771 0
    outer loop
      vertex -5.94098 4.0999 3
      vertex -6.22707 3.72707 0
      vertex -6.22707 3.72707 3
    endloop
  endfacet
  facet normal -0.608771 0.793346 0
    outer loop
      vertex -6.22707 3.72707 0
      vertex -6.5999 3.44098 3
      vertex -6.22707 3.72707 3
    endloop
  endfacet
  facet normal -0.608771 0.793346 0
    outer loop
      vertex -6.5999 3.44098 3
      vertex -6.22707 3.72707 0
      vertex -6.5999 3.44098 0
    endloop
  endfacet
  facet normal 0.130524 -0.991445 0
    outer loop
      vertex -7.96593 6.73886 0
      vertex -7.5 6.8002 3
      vertex -7.96593 6.73886 3
    endloop
  endfacet
  facet normal 0.130524 -0.991445 0
    outer loop
      vertex -7.5 6.8002 3
      vertex -7.96593 6.73886 0
      vertex -7.5 6.8002 0
    endloop
  endfacet
  facet normal 0.923879 0.382685 0
    outer loop
      vertex -9.05902 4.0999 3
      vertex -9.23886 4.53407 0
      vertex -9.23886 4.53407 3
    endloop
  endfacet
  facet normal 0.923879 0.382685 0
    outer loop
      vertex -9.23886 4.53407 0
      vertex -9.05902 4.0999 3
      vertex -9.05902 4.0999 0
    endloop
  endfacet
  facet normal -0.608771 -0.793346 0
    outer loop
      vertex -6.5999 6.55902 0
      vertex -6.22707 6.27293 3
      vertex -6.5999 6.55902 3
    endloop
  endfacet
  facet normal -0.608771 -0.793346 -0
    outer loop
      vertex -6.22707 6.27293 3
      vertex -6.5999 6.55902 0
      vertex -6.22707 6.27293 0
    endloop
  endfacet
  facet normal -0.793346 -0.608771 0
    outer loop
      vertex -5.94098 5.9001 0
      vertex -6.22707 6.27293 3
      vertex -6.22707 6.27293 0
    endloop
  endfacet
  facet normal -0.793346 -0.608771 0
    outer loop
      vertex -6.22707 6.27293 3
      vertex -5.94098 5.9001 0
      vertex -5.94098 5.9001 3
    endloop
  endfacet
  facet normal 0.130524 0.991445 -0
    outer loop
      vertex -7.5 3.1998 0
      vertex -7.96593 3.26114 3
      vertex -7.5 3.1998 3
    endloop
  endfacet
  facet normal 0.130524 0.991445 0
    outer loop
      vertex -7.96593 3.26114 3
      vertex -7.5 3.1998 0
      vertex -7.96593 3.26114 0
    endloop
  endfacet
  facet normal 0.382685 0.923879 -0
    outer loop
      vertex -7.96593 3.26114 0
      vertex -8.4001 3.44098 3
      vertex -7.96593 3.26114 3
    endloop
  endfacet
  facet normal 0.382685 0.923879 0
    outer loop
      vertex -8.4001 3.44098 3
      vertex -7.96593 3.26114 0
      vertex -8.4001 3.44098 0
    endloop
  endfacet
  facet normal 0.382685 -0.923879 0
    outer loop
      vertex 6.5999 -3.44098 0
      vertex 7.03407 -3.26114 3
      vertex 6.5999 -3.44098 3
    endloop
  endfacet
  facet normal 0.382685 -0.923879 0
    outer loop
      vertex 7.03407 -3.26114 3
      vertex 6.5999 -3.44098 0
      vertex 7.03407 -3.26114 0
    endloop
  endfacet
  facet normal 0.991445 0.130524 0
    outer loop
      vertex 5.76114 -5.46593 3
      vertex 5.6998 -5 0
      vertex 5.6998 -5 3
    endloop
  endfacet
  facet normal 0.991445 0.130524 0
    outer loop
      vertex 5.6998 -5 0
      vertex 5.76114 -5.46593 3
      vertex 5.76114 -5.46593 0
    endloop
  endfacet
  facet normal -0.923879 -0.382685 0
    outer loop
      vertex 9.23886 -4.53407 0
      vertex 9.05902 -4.0999 3
      vertex 9.05902 -4.0999 0
    endloop
  endfacet
  facet normal -0.923879 -0.382685 0
    outer loop
      vertex 9.05902 -4.0999 3
      vertex 9.23886 -4.53407 0
      vertex 9.23886 -4.53407 3
    endloop
  endfacet
  facet normal -0.991445 -0.130524 0
    outer loop
      vertex 9.3002 -5 0
      vertex 9.23886 -4.53407 3
      vertex 9.23886 -4.53407 0
    endloop
  endfacet
  facet normal -0.991445 -0.130524 0
    outer loop
      vertex 9.23886 -4.53407 3
      vertex 9.3002 -5 0
      vertex 9.3002 -5 3
    endloop
  endfacet
  facet normal -0.608771 0.793346 0
    outer loop
      vertex 8.77293 -6.27293 0
      vertex 8.4001 -6.55902 3
      vertex 8.77293 -6.27293 3
    endloop
  endfacet
  facet normal -0.608771 0.793346 0
    outer loop
      vertex 8.4001 -6.55902 3
      vertex 8.77293 -6.27293 0
      vertex 8.4001 -6.55902 0
    endloop
  endfacet
  facet normal -0.382685 -0.923879 0
    outer loop
      vertex 7.96593 -3.26114 0
      vertex 8.4001 -3.44098 3
      vertex 7.96593 -3.26114 3
    endloop
  endfacet
  facet normal -0.382685 -0.923879 -0
    outer loop
      vertex 8.4001 -3.44098 3
      vertex 7.96593 -3.26114 0
      vertex 8.4001 -3.44098 0
    endloop
  endfacet
  facet normal -0.793346 0.608771 0
    outer loop
      vertex 8.77293 -6.27293 0
      vertex 9.05902 -5.9001 3
      vertex 9.05902 -5.9001 0
    endloop
  endfacet
  facet normal -0.793346 0.608771 0
    outer loop
      vertex 9.05902 -5.9001 3
      vertex 8.77293 -6.27293 0
      vertex 8.77293 -6.27293 3
    endloop
  endfacet
  facet normal -0.608771 -0.793346 0
    outer loop
      vertex 8.4001 -3.44098 0
      vertex 8.77293 -3.72707 3
      vertex 8.4001 -3.44098 3
    endloop
  endfacet
  facet normal -0.608771 -0.793346 -0
    outer loop
      vertex 8.77293 -3.72707 3
      vertex 8.4001 -3.44098 0
      vertex 8.77293 -3.72707 0
    endloop
  endfacet
  facet normal 0.923879 0.382685 0
    outer loop
      vertex 5.94098 -5.9001 3
      vertex 5.76114 -5.46593 0
      vertex 5.76114 -5.46593 3
    endloop
  endfacet
  facet normal 0.923879 0.382685 0
    outer loop
      vertex 5.76114 -5.46593 0
      vertex 5.94098 -5.9001 3
      vertex 5.94098 -5.9001 0
    endloop
  endfacet
  facet normal 0.130524 -0.991445 0
    outer loop
      vertex 7.03407 -3.26114 0
      vertex 7.5 -3.1998 3
      vertex 7.03407 -3.26114 3
    endloop
  endfacet
  facet normal 0.130524 -0.991445 0
    outer loop
      vertex 7.5 -3.1998 3
      vertex 7.03407 -3.26114 0
      vertex 7.5 -3.1998 0
    endloop
  endfacet
  facet normal -0.923879 0.382685 0
    outer loop
      vertex 9.05902 -5.9001 0
      vertex 9.23886 -5.46593 3
      vertex 9.23886 -5.46593 0
    endloop
  endfacet
  facet normal -0.923879 0.382685 0
    outer loop
      vertex 9.23886 -5.46593 3
      vertex 9.05902 -5.9001 0
      vertex 9.05902 -5.9001 3
    endloop
  endfacet
  facet normal 0.382685 0.923879 -0
    outer loop
      vertex 7.03407 -6.73886 0
      vertex 6.5999 -6.55902 3
      vertex 7.03407 -6.73886 3
    endloop
  endfacet
  facet normal 0.382685 0.923879 0
    outer loop
      vertex 6.5999 -6.55902 3
      vertex 7.03407 -6.73886 0
      vertex 6.5999 -6.55902 0
    endloop
  endfacet
  facet normal 0.991445 -0.130524 0
    outer loop
      vertex 5.6998 -5 3
      vertex 5.76114 -4.53407 0
      vertex 5.76114 -4.53407 3
    endloop
  endfacet
  facet normal 0.991445 -0.130524 0
    outer loop
      vertex 5.76114 -4.53407 0
      vertex 5.6998 -5 3
      vertex 5.6998 -5 0
    endloop
  endfacet
  facet normal 0.608771 -0.793346 0
    outer loop
      vertex 6.22707 -3.72707 0
      vertex 6.5999 -3.44098 3
      vertex 6.22707 -3.72707 3
    endloop
  endfacet
  facet normal 0.608771 -0.793346 0
    outer loop
      vertex 6.5999 -3.44098 3
      vertex 6.22707 -3.72707 0
      vertex 6.5999 -3.44098 0
    endloop
  endfacet
  facet normal 0.793346 0.608771 0
    outer loop
      vertex 6.22707 -6.27293 3
      vertex 5.94098 -5.9001 0
      vertex 5.94098 -5.9001 3
    endloop
  endfacet
  facet normal 0.793346 0.608771 0
    outer loop
      vertex 5.94098 -5.9001 0
      vertex 6.22707 -6.27293 3
      vertex 6.22707 -6.27293 0
    endloop
  endfacet
  facet normal -0.991445 0.130524 0
    outer loop
      vertex 9.23886 -5.46593 0
      vertex 9.3002 -5 3
      vertex 9.3002 -5 0
    endloop
  endfacet
  facet normal -0.991445 0.130524 0
    outer loop
      vertex 9.3002 -5 3
      vertex 9.23886 -5.46593 0
      vertex 9.23886 -5.46593 3
    endloop
  endfacet
  facet normal 0.923879 -0.382685 0
    outer loop
      vertex 5.76114 -4.53407 3
      vertex 5.94098 -4.0999 0
      vertex 5.94098 -4.0999 3
    endloop
  endfacet
  facet normal 0.923879 -0.382685 0
    outer loop
      vertex 5.94098 -4.0999 0
      vertex 5.76114 -4.53407 3
      vertex 5.76114 -4.53407 0
    endloop
  endfacet
  facet normal 0.608771 0.793346 -0
    outer loop
      vertex 6.5999 -6.55902 0
      vertex 6.22707 -6.27293 3
      vertex 6.5999 -6.55902 3
    endloop
  endfacet
  facet normal 0.608771 0.793346 0
    outer loop
      vertex 6.22707 -6.27293 3
      vertex 6.5999 -6.55902 0
      vertex 6.22707 -6.27293 0
    endloop
  endfacet
  facet normal 0.130524 0.991445 -0
    outer loop
      vertex 7.5 -6.8002 0
      vertex 7.03407 -6.73886 3
      vertex 7.5 -6.8002 3
    endloop
  endfacet
  facet normal 0.130524 0.991445 0
    outer loop
      vertex 7.03407 -6.73886 3
      vertex 7.5 -6.8002 0
      vertex 7.03407 -6.73886 0
    endloop
  endfacet
  facet normal 0.793346 -0.608771 0
    outer loop
      vertex 5.94098 -4.0999 3
      vertex 6.22707 -3.72707 0
      vertex 6.22707 -3.72707 3
    endloop
  endfacet
  facet normal 0.793346 -0.608771 0
    outer loop
      vertex 6.22707 -3.72707 0
      vertex 5.94098 -4.0999 3
      vertex 5.94098 -4.0999 0
    endloop
  endfacet
  facet normal -0.130524 -0.991445 0
    outer loop
      vertex 7.5 -3.1998 0
      vertex 7.96593 -3.26114 3
      vertex 7.5 -3.1998 3
    endloop
  endfacet
  facet normal -0.130524 -0.991445 -0
    outer loop
      vertex 7.96593 -3.26114 3
      vertex 7.5 -3.1998 0
      vertex 7.96593 -3.26114 0
    endloop
  endfacet
  facet normal -0.130524 0.991445 0
    outer loop
      vertex 7.96593 -6.73886 0
      vertex 7.5 -6.8002 3
      vertex 7.96593 -6.73886 3
    endloop
  endfacet
  facet normal -0.130524 0.991445 0
    outer loop
      vertex 7.5 -6.8002 3
      vertex 7.96593 -6.73886 0
      vertex 7.5 -6.8002 0
    endloop
  endfacet
  facet normal -0.793346 -0.608771 0
    outer loop
      vertex 9.05902 -4.0999 0
      vertex 8.77293 -3.72707 3
      vertex 8.77293 -3.72707 0
    endloop
  endfacet
  facet normal -0.793346 -0.608771 0
    outer loop
      vertex 8.77293 -3.72707 3
      vertex 9.05902 -4.0999 0
      vertex 9.05902 -4.0999 3
    endloop
  endfacet
  facet normal -0.382685 0.923879 0
    outer loop
      vertex 8.4001 -6.55902 0
      vertex 7.96593 -6.73886 3
      vertex 8.4001 -6.55902 3
    endloop
  endfacet
  facet normal -0.382685 0.923879 0
    outer loop
      vertex 7.96593 -6.73886 3
      vertex 8.4001 -6.55902 0
      vertex 7.96593 -6.73886 0
    endloop
  endfacet
  facet normal 0.130524 0.991445 -0
    outer loop
      vertex 7.5 3.1998 0
      vertex 7.03407 3.26114 3
      vertex 7.5 3.1998 3
    endloop
  endfacet
  facet normal 0.130524 0.991445 0
    outer loop
      vertex 7.03407 3.26114 3
      vertex 7.5 3.1998 0
      vertex 7.03407 3.26114 0
    endloop
  endfacet
  facet normal -0.923879 -0.382685 0
    outer loop
      vertex 9.23886 5.46593 0
      vertex 9.05902 5.9001 3
      vertex 9.05902 5.9001 0
    endloop
  endfacet
  facet normal -0.923879 -0.382685 0
    outer loop
      vertex 9.05902 5.9001 3
      vertex 9.23886 5.46593 0
      vertex 9.23886 5.46593 3
    endloop
  endfacet
  facet normal -0.991445 -0.130524 0
    outer loop
      vertex 9.3002 5 0
      vertex 9.23886 5.46593 3
      vertex 9.23886 5.46593 0
    endloop
  endfacet
  facet normal -0.991445 -0.130524 0
    outer loop
      vertex 9.23886 5.46593 3
      vertex 9.3002 5 0
      vertex 9.3002 5 3
    endloop
  endfacet
  facet normal -0.991445 0.130524 0
    outer loop
      vertex 9.23886 4.53407 0
      vertex 9.3002 5 3
      vertex 9.3002 5 0
    endloop
  endfacet
  facet normal -0.991445 0.130524 0
    outer loop
      vertex 9.3002 5 3
      vertex 9.23886 4.53407 0
      vertex 9.23886 4.53407 3
    endloop
  endfacet
  facet normal -0.382685 0.923879 0
    outer loop
      vertex 8.4001 3.44098 0
      vertex 7.96593 3.26114 3
      vertex 8.4001 3.44098 3
    endloop
  endfacet
  facet normal -0.382685 0.923879 0
    outer loop
      vertex 7.96593 3.26114 3
      vertex 8.4001 3.44098 0
      vertex 7.96593 3.26114 0
    endloop
  endfacet
  facet normal -0.382685 -0.923879 0
    outer loop
      vertex 7.96593 6.73886 0
      vertex 8.4001 6.55902 3
      vertex 7.96593 6.73886 3
    endloop
  endfacet
  facet normal -0.382685 -0.923879 -0
    outer loop
      vertex 8.4001 6.55902 3
      vertex 7.96593 6.73886 0
      vertex 8.4001 6.55902 0
    endloop
  endfacet
  facet normal 0.991445 -0.130524 0
    outer loop
      vertex 5.6998 5 3
      vertex 5.76114 5.46593 0
      vertex 5.76114 5.46593 3
    endloop
  endfacet
  facet normal 0.991445 -0.130524 0
    outer loop
      vertex 5.76114 5.46593 0
      vertex 5.6998 5 3
      vertex 5.6998 5 0
    endloop
  endfacet
  facet normal -0.608771 0.793346 0
    outer loop
      vertex 8.77293 3.72707 0
      vertex 8.4001 3.44098 3
      vertex 8.77293 3.72707 3
    endloop
  endfacet
  facet normal -0.608771 0.793346 0
    outer loop
      vertex 8.4001 3.44098 3
      vertex 8.77293 3.72707 0
      vertex 8.4001 3.44098 0
    endloop
  endfacet
  facet normal 0.991445 0.130524 0
    outer loop
      vertex 5.76114 4.53407 3
      vertex 5.6998 5 0
      vertex 5.6998 5 3
    endloop
  endfacet
  facet normal 0.991445 0.130524 0
    outer loop
      vertex 5.6998 5 0
      vertex 5.76114 4.53407 3
      vertex 5.76114 4.53407 0
    endloop
  endfacet
  facet normal 0.793346 -0.608771 0
    outer loop
      vertex 5.94098 5.9001 3
      vertex 6.22707 6.27293 0
      vertex 6.22707 6.27293 3
    endloop
  endfacet
  facet normal 0.793346 -0.608771 0
    outer loop
      vertex 6.22707 6.27293 0
      vertex 5.94098 5.9001 3
      vertex 5.94098 5.9001 0
    endloop
  endfacet
  facet normal -0.793346 0.608771 0
    outer loop
      vertex 8.77293 3.72707 0
      vertex 9.05902 4.0999 3
      vertex 9.05902 4.0999 0
    endloop
  endfacet
  facet normal -0.793346 0.608771 0
    outer loop
      vertex 9.05902 4.0999 3
      vertex 8.77293 3.72707 0
      vertex 8.77293 3.72707 3
    endloop
  endfacet
  facet normal 0.130524 -0.991445 0
    outer loop
      vertex 7.03407 6.73886 0
      vertex 7.5 6.8002 3
      vertex 7.03407 6.73886 3
    endloop
  endfacet
  facet normal 0.130524 -0.991445 0
    outer loop
      vertex 7.5 6.8002 3
      vertex 7.03407 6.73886 0
      vertex 7.5 6.8002 0
    endloop
  endfacet
  facet normal 0.608771 -0.793346 0
    outer loop
      vertex 6.22707 6.27293 0
      vertex 6.5999 6.55902 3
      vertex 6.22707 6.27293 3
    endloop
  endfacet
  facet normal 0.608771 -0.793346 0
    outer loop
      vertex 6.5999 6.55902 3
      vertex 6.22707 6.27293 0
      vertex 6.5999 6.55902 0
    endloop
  endfacet
  facet normal -0.923879 0.382685 0
    outer loop
      vertex 9.05902 4.0999 0
      vertex 9.23886 4.53407 3
      vertex 9.23886 4.53407 0
    endloop
  endfacet
  facet normal -0.923879 0.382685 0
    outer loop
      vertex 9.23886 4.53407 3
      vertex 9.05902 4.0999 0
      vertex 9.05902 4.0999 3
    endloop
  endfacet
  facet normal 0.382685 -0.923879 0
    outer loop
      vertex 6.5999 6.55902 0
      vertex 7.03407 6.73886 3
      vertex 6.5999 6.55902 3
    endloop
  endfacet
  facet normal 0.382685 -0.923879 0
    outer loop
      vertex 7.03407 6.73886 3
      vertex 6.5999 6.55902 0
      vertex 7.03407 6.73886 0
    endloop
  endfacet
  facet normal -0.130524 0.991445 0
    outer loop
      vertex 7.96593 3.26114 0
      vertex 7.5 3.1998 3
      vertex 7.96593 3.26114 3
    endloop
  endfacet
  facet normal -0.130524 0.991445 0
    outer loop
      vertex 7.5 3.1998 3
      vertex 7.96593 3.26114 0
      vertex 7.5 3.1998 0
    endloop
  endfacet
  facet normal 0.923879 -0.382685 0
    outer loop
      vertex 5.76114 5.46593 3
      vertex 5.94098 5.9001 0
      vertex 5.94098 5.9001 3
    endloop
  endfacet
  facet normal 0.923879 -0.382685 0
    outer loop
      vertex 5.94098 5.9001 0
      vertex 5.76114 5.46593 3
      vertex 5.76114 5.46593 0
    endloop
  endfacet
  facet normal -0.793346 -0.608771 0
    outer loop
      vertex 9.05902 5.9001 0
      vertex 8.77293 6.27293 3
      vertex 8.77293 6.27293 0
    endloop
  endfacet
  facet normal -0.793346 -0.608771 0
    outer loop
      vertex 8.77293 6.27293 3
      vertex 9.05902 5.9001 0
      vertex 9.05902 5.9001 3
    endloop
  endfacet
  facet normal 0.923879 0.382685 0
    outer loop
      vertex 5.94098 4.0999 3
      vertex 5.76114 4.53407 0
      vertex 5.76114 4.53407 3
    endloop
  endfacet
  facet normal 0.923879 0.382685 0
    outer loop
      vertex 5.76114 4.53407 0
      vertex 5.94098 4.0999 3
      vertex 5.94098 4.0999 0
    endloop
  endfacet
  facet normal -0.608771 -0.793346 0
    outer loop
      vertex 8.4001 6.55902 0
      vertex 8.77293 6.27293 3
      vertex 8.4001 6.55902 3
    endloop
  endfacet
  facet normal -0.608771 -0.793346 -0
    outer loop
      vertex 8.77293 6.27293 3
      vertex 8.4001 6.55902 0
      vertex 8.77293 6.27293 0
    endloop
  endfacet
  facet normal -0.130524 -0.991445 0
    outer loop
      vertex 7.5 6.8002 0
      vertex 7.96593 6.73886 3
      vertex 7.5 6.8002 3
    endloop
  endfacet
  facet normal -0.130524 -0.991445 -0
    outer loop
      vertex 7.96593 6.73886 3
      vertex 7.5 6.8002 0
      vertex 7.96593 6.73886 0
    endloop
  endfacet
  facet normal 0.793346 0.608771 0
    outer loop
      vertex 6.22707 3.72707 3
      vertex 5.94098 4.0999 0
      vertex 5.94098 4.0999 3
    endloop
  endfacet
  facet normal 0.793346 0.608771 0
    outer loop
      vertex 5.94098 4.0999 0
      vertex 6.22707 3.72707 3
      vertex 6.22707 3.72707 0
    endloop
  endfacet
  facet normal 0.382685 0.923879 -0
    outer loop
      vertex 7.03407 3.26114 0
      vertex 6.5999 3.44098 3
      vertex 7.03407 3.26114 3
    endloop
  endfacet
  facet normal 0.382685 0.923879 0
    outer loop
      vertex 6.5999 3.44098 3
      vertex 7.03407 3.26114 0
      vertex 6.5999 3.44098 0
    endloop
  endfacet
  facet normal 0.608771 0.793346 -0
    outer loop
      vertex 6.5999 3.44098 0
      vertex 6.22707 3.72707 3
      vertex 6.5999 3.44098 3
    endloop
  endfacet
  facet normal 0.608771 0.793346 0
    outer loop
      vertex 6.22707 3.72707 3
      vertex 6.5999 3.44098 0
      vertex 6.22707 3.72707 0
    endloop
  endfacet
endsolid OpenSCAD_Model
